<?xml version="1.0" encoding="UTF-8"?>
<!DOCTYPE svg PUBLIC "-//W3C//DTD SVG 1.1//EN" "http://www.w3.org/Graphics/SVG/1.1/DTD/svg11.dtd">
<svg xmlns="http://www.w3.org/2000/svg" version="1.1" width="550px" height="124px" style="shape-rendering:geometricPrecision; text-rendering:geometricPrecision; image-rendering:optimizeQuality; fill-rule:evenodd; clip-rule:evenodd" xmlns:xlink="http://www.w3.org/1999/xlink">
<g><path style="opacity:0.799" fill="#1e3376" d="M 345.5,3.5 C 361.82,4.36067 367.32,12.694 362,28.5C 360.235,31.473 357.735,33.6396 354.5,35C 334.709,36.9624 328.209,28.4624 335,9.5C 338.069,6.55447 341.569,4.55447 345.5,3.5 Z M 346.5,6.5 C 354.49,7.25146 358.49,11.7515 358.5,20C 356.877,33.0637 350.711,35.8971 340,28.5C 338,22.5 338,16.5 340,10.5C 341.792,8.37201 343.958,7.03867 346.5,6.5 Z"/></g>
<g><path style="opacity:0.778" fill="#1e3376" d="M 141.5,4.5 C 142.833,4.5 144.167,4.5 145.5,4.5C 148.139,13.9158 151.472,23.0825 155.5,32C 156.448,32.4828 157.448,32.6495 158.5,32.5C 158.5,33.5 158.5,34.5 158.5,35.5C 154.5,35.5 150.5,35.5 146.5,35.5C 149.996,26.6992 146.996,23.1992 137.5,25C 136.214,27.0223 135.214,29.1889 134.5,31.5C 135.325,32.3857 136.325,32.719 137.5,32.5C 137.5,33.5 137.5,34.5 137.5,35.5C 133.833,35.5 130.167,35.5 126.5,35.5C 126.5,34.5 126.5,33.5 126.5,32.5C 127.822,32.67 128.989,32.3366 130,31.5C 133.848,22.4742 137.682,13.4742 141.5,4.5 Z M 141.5,12.5 C 142.93,15.1974 144.263,18.0308 145.5,21C 143.167,21.6667 140.833,21.6667 138.5,21C 139.929,18.3103 140.929,15.4769 141.5,12.5 Z"/></g>
<g><path style="opacity:0.745" fill="#1e3376" d="M 161.5,4.5 C 165.555,4.17575 169.555,4.50909 173.5,5.5C 173.167,6.5 172.5,7.16667 171.5,7.5C 170.901,17.8737 170.067,28.207 169,38.5C 166.635,41.6084 163.468,43.6084 159.5,44.5C 159.167,44 158.833,43.5 158.5,43C 160.312,41.1884 162.145,39.3551 164,37.5C 164.832,27.4834 164.666,17.4834 163.5,7.5C 162.081,6.99525 161.415,5.99525 161.5,4.5 Z"/></g>
<g><path style="opacity:0.775" fill="#1e3376" d="M 189.5,4.5 C 191.144,4.28649 192.644,4.61983 194,5.5C 197,13.8333 200,22.1667 203,30.5C 204.635,31.7256 206.135,33.059 207.5,34.5C 203.541,35.6599 199.541,35.8265 195.5,35C 195.043,34.586 194.709,34.086 194.5,33.5C 195.5,32.8333 196.5,32.1667 197.5,31.5C 196.423,29.2706 195.756,26.9372 195.5,24.5C 192.167,24.5 188.833,24.5 185.5,24.5C 185.276,26.7867 184.609,28.9534 183.5,31C 184.707,32.3002 185.374,33.8002 185.5,35.5C 182.167,35.5 178.833,35.5 175.5,35.5C 175.5,34.5 175.5,33.5 175.5,32.5C 176.675,32.719 177.675,32.3857 178.5,31.5C 182.763,22.705 186.429,13.705 189.5,4.5 Z M 190.5,13.5 C 192.02,15.8902 193.02,18.5568 193.5,21.5C 191.396,21.7989 189.396,21.4656 187.5,20.5C 188.312,18.0554 189.312,15.7221 190.5,13.5 Z"/></g>
<g><path style="opacity:0.765" fill="#1e3376" d="M 207.5,4.5 C 211.884,4.17443 216.217,4.50776 220.5,5.5C 219.91,6.79892 218.91,7.63225 217.5,8C 219.207,11.2485 221.04,14.4151 223,17.5C 224.96,14.4151 226.793,11.2485 228.5,8C 227.09,7.63225 226.09,6.79892 225.5,5.5C 229.167,4.16667 232.833,4.16667 236.5,5.5C 228.539,12.4161 224.705,21.0827 225,31.5C 226.011,32.3366 227.178,32.67 228.5,32.5C 228.5,33.5 228.5,34.5 228.5,35.5C 224.5,35.5 220.5,35.5 216.5,35.5C 216.5,34.5 216.5,33.5 216.5,32.5C 217.5,32.5 218.5,32.5 219.5,32.5C 219.665,28.8183 219.499,25.1516 219,21.5C 216.027,15.0673 212.194,9.40068 207.5,4.5 Z"/></g>
<g><path style="opacity:0.83" fill="#1e3376" d="M 239.5,4.5 C 243.167,4.5 246.833,4.5 250.5,4.5C 250.5,5.5 250.5,6.5 250.5,7.5C 249.5,7.5 248.5,7.5 247.5,7.5C 247.334,15.5069 247.5,23.5069 248,31.5C 249.706,32.3079 250.539,33.6412 250.5,35.5C 246.833,35.5 243.167,35.5 239.5,35.5C 239.5,34.5 239.5,33.5 239.5,32.5C 240.5,32.5 241.5,32.5 242.5,32.5C 242.5,24.1667 242.5,15.8333 242.5,7.5C 241.5,7.5 240.5,7.5 239.5,7.5C 239.5,6.5 239.5,5.5 239.5,4.5 Z"/></g>
<g><path style="opacity:0.81" fill="#1e3376" d="M 281.5,4.5 C 286.179,4.33418 290.845,4.50085 295.5,5C 295.833,5.33333 296.167,5.66667 296.5,6C 295.932,8.68376 294.932,11.1838 293.5,13.5C 292.232,11.6957 291.565,9.69565 291.5,7.5C 281.239,6.59439 276.406,11.2611 277,21.5C 279.798,31.2513 285.965,34.2513 295.5,30.5C 295.833,31 296.167,31.5 296.5,32C 295.556,33.4768 294.223,34.4768 292.5,35C 279.643,37.915 272.31,32.915 270.5,20C 271.381,12.6524 275.048,7.48572 281.5,4.5 Z"/></g>
<g><path style="opacity:0.822" fill="#1e3376" d="M 302.5,4.5 C 307.844,4.33398 313.177,4.50065 318.5,5C 324.059,6.45795 325.892,9.95795 324,15.5C 322.833,18 321,19.8333 318.5,21C 321.75,26.0371 325.083,30.8704 328.5,35.5C 325.68,35.7525 323.014,35.2525 320.5,34C 317.61,29.7073 314.61,25.5406 311.5,21.5C 310.511,25.1073 310.177,28.774 310.5,32.5C 311.5,32.5 312.5,32.5 313.5,32.5C 313.5,33.5 313.5,34.5 313.5,35.5C 309.833,35.5 306.167,35.5 302.5,35.5C 302.5,34.5 302.5,33.5 302.5,32.5C 303.5,32.5 304.5,32.5 305.5,32.5C 305.5,24.1667 305.5,15.8333 305.5,7.5C 304.5,7.5 303.5,7.5 302.5,7.5C 302.5,6.5 302.5,5.5 302.5,4.5 Z M 310.5,7.5 C 318.053,6.88188 320.386,10.0486 317.5,17C 315.323,18.2022 312.989,18.7022 310.5,18.5C 310.5,14.8333 310.5,11.1667 310.5,7.5 Z"/></g>
<g><path style="opacity:0.797" fill="#1e3376" d="M 367.5,4.5 C 371.5,4.5 375.5,4.5 379.5,4.5C 379.214,6.27692 378.547,7.94359 377.5,9.5C 379.035,14.9399 380.869,20.2733 383,25.5C 385.476,18.5726 387.643,11.5726 389.5,4.5C 390.833,4.5 392.167,4.5 393.5,4.5C 394.955,11.6986 397.121,18.6986 400,25.5C 401.833,20 403.667,14.5 405.5,9C 404.293,7.69981 403.626,6.19981 403.5,4.5C 406.898,4.17964 410.232,4.51298 413.5,5.5C 412.653,6.84484 411.487,7.84484 410,8.5C 406.932,17.205 403.765,25.8717 400.5,34.5C 399.349,35.731 398.183,35.731 397,34.5C 395.126,28.376 392.959,22.376 390.5,16.5C 387.784,22.3089 385.451,28.3089 383.5,34.5C 382.311,35.4287 380.978,35.762 379.5,35.5C 377.513,27.0356 375.013,18.7023 372,10.5C 370.276,8.58695 368.776,6.58695 367.5,4.5 Z"/></g>
<g><path style="opacity:0.805" fill="#1e3376" d="M 415.5,4.5 C 424.167,4.5 432.833,4.5 441.5,4.5C 441.795,7.73408 441.129,10.7341 439.5,13.5C 437.914,11.8273 437.247,9.82733 437.5,7.5C 435.167,7.5 432.833,7.5 430.5,7.5C 430.334,15.5069 430.5,23.5069 431,31.5C 432.011,32.3366 433.178,32.67 434.5,32.5C 434.5,33.5 434.5,34.5 434.5,35.5C 430.445,35.8242 426.445,35.4909 422.5,34.5C 422.291,33.914 421.957,33.414 421.5,33C 422.766,32.6905 423.933,32.1905 425,31.5C 425.5,23.5069 425.666,15.5069 425.5,7.5C 423.396,7.2011 421.396,7.53443 419.5,8.5C 419.047,10.5652 418.047,12.2318 416.5,13.5C 415.516,10.5719 415.183,7.57186 415.5,4.5 Z"/></g>
<g><path style="opacity:0.795" fill="#1e3376" d="M 446.5,4.5 C 450.167,4.5 453.833,4.5 457.5,4.5C 457.5,5.5 457.5,6.5 457.5,7.5C 456.5,7.5 455.5,7.5 454.5,7.5C 454.5,10.8333 454.5,14.1667 454.5,17.5C 459.167,17.5 463.833,17.5 468.5,17.5C 469.131,12.9595 468.131,8.95946 465.5,5.5C 469.5,4.16667 473.5,4.16667 477.5,5.5C 477.167,6.5 476.5,7.16667 475.5,7.5C 474.502,15.8068 474.169,24.1401 474.5,32.5C 475.5,32.5 476.5,32.5 477.5,32.5C 477.5,33.5 477.5,34.5 477.5,35.5C 473.5,35.5 469.5,35.5 465.5,35.5C 465.5,34.5 465.5,33.5 465.5,32.5C 466.5,32.5 467.5,32.5 468.5,32.5C 468.5,28.5 468.5,24.5 468.5,20.5C 463.833,20.5 459.167,20.5 454.5,20.5C 454.5,24.5 454.5,28.5 454.5,32.5C 455.5,32.5 456.5,32.5 457.5,32.5C 457.5,33.5 457.5,34.5 457.5,35.5C 453.833,35.5 450.167,35.5 446.5,35.5C 446.5,34.5 446.5,33.5 446.5,32.5C 447.5,32.5 448.5,32.5 449.5,32.5C 449.5,24.1667 449.5,15.8333 449.5,7.5C 448.5,7.5 447.5,7.5 446.5,7.5C 446.5,6.5 446.5,5.5 446.5,4.5 Z"/></g>
<g><path style="opacity:0.775" fill="#1e3376" d="M 483.5,4.5 C 490.5,4.5 497.5,4.5 504.5,4.5C 504.72,7.40046 504.054,10.0671 502.5,12.5C 500.783,11.3315 500.116,9.66485 500.5,7.5C 497.5,7.5 494.5,7.5 491.5,7.5C 491.5,11.1667 491.5,14.8333 491.5,18.5C 493.527,18.6621 495.527,18.4955 497.5,18C 498.337,16.9887 498.67,15.8221 498.5,14.5C 499.675,14.281 500.675,14.6143 501.5,15.5C 500.167,18.1667 500.167,20.8333 501.5,23.5C 499.731,24.6265 498.397,24.1265 497.5,22C 495.527,21.5045 493.527,21.3379 491.5,21.5C 491.5,24.8333 491.5,28.1667 491.5,31.5C 494.518,31.6646 497.518,31.498 500.5,31C 501.224,28.3301 502.891,26.8301 505.5,26.5C 505.296,29.5176 504.963,32.5176 504.5,35.5C 497.5,35.5 490.5,35.5 483.5,35.5C 483.5,34.5 483.5,33.5 483.5,32.5C 484.5,32.5 485.5,32.5 486.5,32.5C 486.5,24.1667 486.5,15.8333 486.5,7.5C 485.5,7.5 484.5,7.5 483.5,7.5C 483.5,6.5 483.5,5.5 483.5,4.5 Z"/></g>
<g><path style="opacity:0.826" fill="#1e3376" d="M 511.5,4.5 C 517.176,4.33391 522.843,4.50058 528.5,5C 533.224,7.43529 534.724,11.2686 533,16.5C 531.442,18.3589 529.609,19.8589 527.5,21C 529.727,23.5641 531.561,26.3974 533,29.5C 534.78,31.2929 536.613,32.9596 538.5,34.5C 535.423,35.7988 532.423,35.6322 529.5,34C 526.662,29.6703 523.662,25.5036 520.5,21.5C 519.511,25.1073 519.177,28.774 519.5,32.5C 520.5,32.5 521.5,32.5 522.5,32.5C 522.5,33.5 522.5,34.5 522.5,35.5C 518.833,35.5 515.167,35.5 511.5,35.5C 511.5,34.5 511.5,33.5 511.5,32.5C 512.5,32.5 513.5,32.5 514.5,32.5C 514.5,24.1667 514.5,15.8333 514.5,7.5C 513.5,7.5 512.5,7.5 511.5,7.5C 511.5,6.5 511.5,5.5 511.5,4.5 Z M 519.5,7.5 C 527.053,6.88188 529.386,10.0486 526.5,17C 524.323,18.2022 521.989,18.7022 519.5,18.5C 519.5,14.8333 519.5,11.1667 519.5,7.5 Z"/></g>
<g><path style="opacity:0.835" fill="#4b3a1a" d="M 61.5,5.5 C 63.1667,6.5 64.5,7.83333 65.5,9.5C 62.858,9.51234 61.5246,8.17901 61.5,5.5 Z"/></g>
<g><path style="opacity:0.722" fill="#bfa188" d="M 52.5,11.5 C 44.5413,15.5491 36.208,16.8824 27.5,15.5C 36.0092,15.1502 44.3425,13.8168 52.5,11.5 Z"/></g>
<g><path style="opacity:0.176" fill="#000000" d="M 100.5,14.5 C 101.117,14.6107 101.617,14.944 102,15.5C 102.5,41.8312 102.667,68.1646 102.5,94.5C 101.883,94.6107 101.383,94.944 101,95.5C 100.5,68.8354 100.333,42.1687 100.5,15.5C 100.5,15.1667 100.5,14.8333 100.5,14.5 Z"/></g>
<g><path style="opacity:1" fill="#ba7f2c" d="M 61.5,5.5 C 61.5246,8.17901 62.858,9.51234 65.5,9.5C 76.6387,14.6151 88.3053,16.2817 100.5,14.5C 100.5,14.8333 100.5,15.1667 100.5,15.5C 99.1667,15.5 97.8333,15.5 96.5,15.5C 96.5,16.8333 96.5,18.1667 96.5,19.5C 93.6062,19.0423 91.1062,19.709 89,21.5C 88.5831,20.244 87.7498,19.5774 86.5,19.5C 84.5,18.1667 82.5,18.1667 80.5,19.5C 76.8333,19.5 73.1667,19.5 69.5,19.5C 69.5,20.5 69.5,21.5 69.5,22.5C 72.3896,23.2448 75.3896,23.9115 78.5,24.5C 82.0419,24.1872 85.3752,24.5206 88.5,25.5C 69.5,25.5 50.5,25.5 31.5,25.5C 31.1667,25.5 30.8333,25.5 30.5,25.5C 36.9874,24.6717 43.654,24.1717 50.5,24C 47.3054,23.8195 44.3054,23.3195 41.5,22.5C 44.3938,22.9577 46.8938,22.291 49,20.5C 49.3333,21.1667 49.6667,21.8333 50,22.5C 50.85,21.5761 51.85,21.5761 53,22.5C 54.0111,21.9444 54.8444,21.2778 55.5,20.5C 55.5,21.5 55.5,22.5 55.5,23.5C 57.5,23.5 59.5,23.5 61.5,23.5C 62.1667,23.5 62.8333,23.5 63.5,23.5C 64.8333,23.5 66.1667,23.5 67.5,23.5C 67.7678,21.901 67.4345,20.5676 66.5,19.5C 64.5,18.1667 62.5,18.1667 60.5,19.5C 56.367,18.2737 52.367,18.2737 48.5,19.5C 45.796,18.2857 43.1293,18.2857 40.5,19.5C 39.6679,19.754 39.0013,20.754 38.5,22.5C 36.8333,23.8333 35.1667,23.8333 33.5,22.5C 34.7375,21.2566 34.4041,20.2566 32.5,19.5C 31.4593,21.9913 30.6259,21.9913 30,19.5C 29.3741,21.9913 28.5407,21.9913 27.5,19.5C 26.8182,20.2427 26.1515,20.9094 25.5,21.5C 25.1575,19.7748 24.1575,19.2748 22.5,20C 23.1667,20.3333 23.8333,20.6667 24.5,21C 23.2068,21.49 21.8734,21.6567 20.5,21.5C 20.4208,20.0695 20.7542,18.7362 21.5,17.5C 21.0302,16.537 20.3635,16.537 19.5,17.5C 21.6353,15.631 24.3019,14.9644 27.5,15.5C 36.208,16.8824 44.5413,15.5491 52.5,11.5C 54.9794,8.68174 57.9794,6.68174 61.5,5.5 Z"/></g>
<g><path style="opacity:1" fill="#6e545a" d="M 48.5,19.5 C 51.5,19.5 54.5,19.5 57.5,19.5C 57.6332,22.925 56.9665,23.2583 55.5,20.5C 54.8444,21.2778 54.0111,21.9444 53,22.5C 51.85,21.5761 50.85,21.5761 50,22.5C 49.6667,21.8333 49.3333,21.1667 49,20.5C 46.8938,22.291 44.3938,22.9577 41.5,22.5C 40.596,21.791 40.2627,20.791 40.5,19.5C 43.1293,18.2857 45.796,18.2857 48.5,19.5 Z"/></g>
<g><path style="opacity:1" fill="#605158" d="M 86.5,19.5 C 87.7498,19.5774 88.5831,20.244 89,21.5C 91.1062,19.709 93.6062,19.0423 96.5,19.5C 95.8813,22.5954 94.8813,22.9288 93.5,20.5C 92.4024,24.3605 91.5691,24.3605 91,20.5C 90.5831,21.756 89.7498,22.4226 88.5,22.5C 87.7784,22.0825 87.2784,21.4158 87,20.5C 86.2569,22.6447 85.4235,22.8114 84.5,21C 84.8361,19.9701 85.5028,19.4701 86.5,19.5 Z"/></g>
<g><path style="opacity:1" fill="#61535b" d="M 80.5,19.5 C 82.2252,19.8425 82.7252,20.8425 82,22.5C 81.3741,20.0087 80.5407,20.0087 79.5,22.5C 78.8076,21.9747 78.3076,21.3081 78,20.5C 75.544,22.3213 72.7107,22.988 69.5,22.5C 69.5,21.5 69.5,20.5 69.5,19.5C 73.1667,19.5 76.8333,19.5 80.5,19.5 Z"/></g>
<g><path style="opacity:1" fill="#8a6438" d="M 48.5,19.5 C 52.367,18.2737 56.367,18.2737 60.5,19.5C 59.9094,20.1515 59.2427,20.8182 58.5,21.5C 59.7808,21.0161 60.7808,21.6827 61.5,23.5C 59.5,23.5 57.5,23.5 55.5,23.5C 55.5,22.5 55.5,21.5 55.5,20.5C 56.9665,23.2583 57.6332,22.925 57.5,19.5C 54.5,19.5 51.5,19.5 48.5,19.5 Z"/></g>
<g><path style="opacity:1" fill="#675454" d="M 60.5,19.5 C 61.5,19.5 62.5,19.5 63.5,19.5C 63.5,20.8333 63.5,22.1667 63.5,23.5C 62.8333,23.5 62.1667,23.5 61.5,23.5C 60.7808,21.6827 59.7808,21.0161 58.5,21.5C 59.2427,20.8182 59.9094,20.1515 60.5,19.5 Z"/></g>
<g><path style="opacity:1" fill="#966b40" d="M 60.5,19.5 C 62.5,18.1667 64.5,18.1667 66.5,19.5C 67.4345,20.5676 67.7678,21.901 67.5,23.5C 66.1667,23.5 64.8333,23.5 63.5,23.5C 63.5,22.1667 63.5,20.8333 63.5,19.5C 62.5,19.5 61.5,19.5 60.5,19.5 Z"/></g>
<g><path style="opacity:1" fill="#56486c" d="M 66.5,19.5 C 66.719,20.675 66.3857,21.675 65.5,22.5C 64.2021,20.9483 64.5354,19.9483 66.5,19.5 Z"/></g>
<g><path style="opacity:1" fill="#916d39" d="M 80.5,19.5 C 82.5,18.1667 84.5,18.1667 86.5,19.5C 85.5028,19.4701 84.8361,19.9701 84.5,21C 85.4235,22.8114 86.2569,22.6447 87,20.5C 87.2784,21.4158 87.7784,22.0825 88.5,22.5C 85.1667,23.1667 81.8333,23.8333 78.5,24.5C 75.3896,23.9115 72.3896,23.2448 69.5,22.5C 72.7107,22.988 75.544,22.3213 78,20.5C 78.3076,21.3081 78.8076,21.9747 79.5,22.5C 80.5407,20.0087 81.3741,20.0087 82,22.5C 82.7252,20.8425 82.2252,19.8425 80.5,19.5 Z"/></g>
<g><path style="opacity:1" fill="#edecee" d="M 30.5,25.5 C 30.8333,25.5 31.1667,25.5 31.5,25.5C 38.1595,33.4921 45.1595,41.1588 52.5,48.5C 53.1667,49.8333 54.1667,50.8333 55.5,51.5C 55.5,53.1667 55.5,54.8333 55.5,56.5C 52.1667,56.5 48.8333,56.5 45.5,56.5C 39.1944,49.8597 32.8611,43.193 26.5,36.5C 26.5,32.8333 26.5,29.1667 26.5,25.5C 27.8333,25.5 29.1667,25.5 30.5,25.5 Z"/></g>
<g><path style="opacity:1" fill="#ecebed" d="M 88.5,25.5 C 90.8333,25.5 93.1667,25.5 95.5,25.5C 95.5,28.5 95.5,31.5 95.5,34.5C 94.5,34.8333 93.8333,35.5 93.5,36.5C 87.1667,43.1667 80.8333,49.8333 74.5,56.5C 71.1501,56.665 67.8168,56.4983 64.5,56C 63.7476,55.3292 63.4142,54.4959 63.5,53.5C 71.8047,44.1923 80.138,34.8589 88.5,25.5 Z"/></g>
<g><path style="opacity:1" fill="#203374" d="M 57.5,50.5 C 56.8333,50.8333 56.1667,51.1667 55.5,51.5C 54.1667,50.8333 53.1667,49.8333 52.5,48.5C 53.5676,47.5655 54.901,47.2322 56.5,47.5C 57.1197,43.6983 56.2863,40.365 54,37.5C 54.1282,35.555 53.9615,33.7216 53.5,32C 55.0438,32.4866 56.7105,32.9866 58.5,33.5C 57.5865,31.1652 56.2532,28.9985 54.5,27C 58.5,26.3333 62.5,26.3333 66.5,27C 68.5384,28.236 69.7051,30.0694 70,32.5C 71.5196,30.1655 73.0196,30.3321 74.5,33C 73.8333,33.3333 73.1667,33.6667 72.5,34C 72.6158,35.2682 72.9491,36.6015 73.5,38C 72.2559,38.4561 71.4226,37.9561 71,36.5C 70.6905,37.7659 70.1905,38.9326 69.5,40C 69.8333,40.3333 70.1667,40.6667 70.5,41C 69.0069,42.3681 67.5069,42.5348 66,41.5C 65.5172,42.448 65.3505,43.448 65.5,44.5C 61.7032,44.9601 59.0365,46.9601 57.5,50.5 Z"/></g>
<g><path style="opacity:1" fill="#2a3675" d="M 31.5,25.5 C 50.5,25.5 69.5,25.5 88.5,25.5C 80.138,34.8589 71.8047,44.1923 63.5,53.5C 63.5912,51.3023 62.9245,50.9689 61.5,52.5C 60.391,52.4431 59.391,52.1098 58.5,51.5C 58.5,50.8333 58.1667,50.5 57.5,50.5C 59.0365,46.9601 61.7032,44.9601 65.5,44.5C 65.3505,43.448 65.5172,42.448 66,41.5C 67.5069,42.5348 69.0069,42.3681 70.5,41C 70.1667,40.6667 69.8333,40.3333 69.5,40C 70.1905,38.9326 70.6905,37.7659 71,36.5C 71.4226,37.9561 72.2559,38.4561 73.5,38C 72.9491,36.6015 72.6158,35.2682 72.5,34C 73.1667,33.6667 73.8333,33.3333 74.5,33C 73.0196,30.3321 71.5196,30.1655 70,32.5C 69.7051,30.0694 68.5384,28.236 66.5,27C 62.5,26.3333 58.5,26.3333 54.5,27C 56.2532,28.9985 57.5865,31.1652 58.5,33.5C 56.7105,32.9866 55.0438,32.4866 53.5,32C 53.9615,33.7216 54.1282,35.555 54,37.5C 56.2863,40.365 57.1197,43.6983 56.5,47.5C 54.901,47.2322 53.5676,47.5655 52.5,48.5C 45.1595,41.1588 38.1595,33.4921 31.5,25.5 Z"/></g>
<g><path style="opacity:1" fill="#c08628" d="M 25.5,21.5 C 27.9986,23.1239 30.6653,23.4572 33.5,22.5C 35.1667,23.8333 36.8333,23.8333 38.5,22.5C 39.0013,20.754 39.6679,19.754 40.5,19.5C 40.2627,20.791 40.596,21.791 41.5,22.5C 44.3054,23.3195 47.3054,23.8195 50.5,24C 43.654,24.1717 36.9874,24.6717 30.5,25.5C 29.1667,25.5 27.8333,25.5 26.5,25.5C 26.5,29.1667 26.5,32.8333 26.5,36.5C 25.1667,55.8333 25.1667,75.1667 26.5,94.5C 27.1667,95.8333 27.8333,97.1667 28.5,98.5C 26.8235,99.1834 26.1568,100.517 26.5,102.5C 25.1667,102.5 23.8333,102.5 22.5,102.5C 20.0971,102.552 17.7638,102.219 15.5,101.5C 14.8333,102.167 14.1667,102.833 13.5,103.5C 13.5,102.5 13.5,101.5 13.5,100.5C 15.604,100.799 17.604,100.466 19.5,99.5C 19.542,98.1457 19.542,96.8123 19.5,95.5C 19.5,69.5 19.5,43.5 19.5,17.5C 20.3635,16.537 21.0302,16.537 21.5,17.5C 20.7542,18.7362 20.4208,20.0695 20.5,21.5C 21.8734,21.6567 23.2068,21.49 24.5,21C 23.8333,20.6667 23.1667,20.3333 22.5,20C 24.1575,19.2748 25.1575,19.7748 25.5,21.5 Z"/></g>
<g><path style="opacity:1" fill="#594854" d="M 38.5,22.5 C 37.7784,22.0825 37.2784,21.4158 37,20.5C 35.9125,22.9316 35.4125,22.5983 35.5,19.5C 36.5,19.5 37.5,19.5 38.5,19.5C 38.5,20.5 38.5,21.5 38.5,22.5 Z"/></g>
<g><path style="opacity:1" fill="#685057" d="M 33.5,22.5 C 30.6653,23.4572 27.9986,23.1239 25.5,21.5C 26.1515,20.9094 26.8182,20.2427 27.5,19.5C 28.5407,21.9913 29.3741,21.9913 30,19.5C 30.6259,21.9913 31.4593,21.9913 32.5,19.5C 34.4041,20.2566 34.7375,21.2566 33.5,22.5 Z"/></g>
<g><path style="opacity:0.794" fill="#1e3376" d="M 129.5,55.5 C 133.167,55.5 136.833,55.5 140.5,55.5C 140.5,56.5 140.5,57.5 140.5,58.5C 139.5,58.5 138.5,58.5 137.5,58.5C 137.334,64.8421 137.5,71.1754 138,77.5C 139.458,83.0589 142.958,84.8923 148.5,83C 150.049,81.786 151.215,80.286 152,78.5C 152.5,71.8417 152.666,65.175 152.5,58.5C 151.5,58.5 150.5,58.5 149.5,58.5C 149.5,57.5 149.5,56.5 149.5,55.5C 152.833,55.5 156.167,55.5 159.5,55.5C 159.5,56.5 159.5,57.5 159.5,58.5C 158.5,58.5 157.5,58.5 156.5,58.5C 156.901,66.5852 156.401,74.5852 155,82.5C 149.91,87.2296 144.077,88.3963 137.5,86C 135.622,84.4571 134.122,82.6238 133,80.5C 132.5,73.1742 132.334,65.8409 132.5,58.5C 131.5,58.5 130.5,58.5 129.5,58.5C 129.5,57.5 129.5,56.5 129.5,55.5 Z"/></g>
<g><path style="opacity:0.806" fill="#1e3376" d="M 164.5,55.5 C 166.857,55.3367 169.19,55.5034 171.5,56C 177.12,62.7419 182.62,69.5752 188,76.5C 188.667,70.8333 188.667,65.1667 188,59.5C 186.294,58.6921 185.461,57.3588 185.5,55.5C 188.833,55.5 192.167,55.5 195.5,55.5C 195.5,56.5 195.5,57.5 195.5,58.5C 194.178,58.33 193.011,58.6634 192,59.5C 191.5,68.4938 191.334,77.4938 191.5,86.5C 189.61,86.7035 188.11,86.0368 187,84.5C 182,78.1667 177,71.8333 172,65.5C 171.501,71.4908 171.334,77.4908 171.5,83.5C 172.5,83.5 173.5,83.5 174.5,83.5C 174.5,84.5 174.5,85.5 174.5,86.5C 171.167,86.5 167.833,86.5 164.5,86.5C 164.5,85.5 164.5,84.5 164.5,83.5C 165.5,83.5 166.5,83.5 167.5,83.5C 167.5,75.1667 167.5,66.8333 167.5,58.5C 166.5,58.5 165.5,58.5 164.5,58.5C 164.5,57.5 164.5,56.5 164.5,55.5 Z"/></g>
<g><path style="opacity:0.834" fill="#1e3376" d="M 200.5,55.5 C 204.167,55.5 207.833,55.5 211.5,55.5C 211.5,56.5 211.5,57.5 211.5,58.5C 210.5,58.5 209.5,58.5 208.5,58.5C 208.5,66.8333 208.5,75.1667 208.5,83.5C 209.5,83.5 210.5,83.5 211.5,83.5C 211.5,84.5 211.5,85.5 211.5,86.5C 207.833,86.5 204.167,86.5 200.5,86.5C 200.5,85.5 200.5,84.5 200.5,83.5C 201.5,83.5 202.5,83.5 203.5,83.5C 203.5,75.1667 203.5,66.8333 203.5,58.5C 202.5,58.5 201.5,58.5 200.5,58.5C 200.5,57.5 200.5,56.5 200.5,55.5 Z"/></g>
<g><path style="opacity:0.764" fill="#1e3376" d="M 215.5,55.5 C 219.5,55.5 223.5,55.5 227.5,55.5C 227.5,56.5 227.5,57.5 227.5,58.5C 226.448,58.3505 225.448,58.5172 224.5,59C 227.004,65.1836 229.504,71.3502 232,77.5C 234.504,71.3164 237.004,65.1498 239.5,59C 238.552,58.5172 237.552,58.3505 236.5,58.5C 236.5,57.5 236.5,56.5 236.5,55.5C 239.85,55.335 243.183,55.5017 246.5,56C 246.957,56.414 247.291,56.914 247.5,57.5C 245.807,58.2283 244.307,59.2283 243,60.5C 239.598,68.874 236.098,77.2073 232.5,85.5C 231.311,86.4287 229.978,86.762 228.5,86.5C 225.837,77.3466 222.671,68.3466 219,59.5C 217.989,58.6634 216.822,58.33 215.5,58.5C 215.5,57.5 215.5,56.5 215.5,55.5 Z"/></g>
<g><path style="opacity:0.796" fill="#1e3376" d="M 249.5,55.5 C 256.833,55.5 264.167,55.5 271.5,55.5C 270.908,58.1272 270.575,60.7938 270.5,63.5C 269.5,63.5 268.5,63.5 267.5,63.5C 267.714,61.8561 267.38,60.3561 266.5,59C 263.854,58.5026 261.187,58.3359 258.5,58.5C 258.5,62.1667 258.5,65.8333 258.5,69.5C 260.5,69.5 262.5,69.5 264.5,69.5C 264.222,67.6536 264.889,66.3202 266.5,65.5C 267.833,68.8333 267.833,72.1667 266.5,75.5C 264.412,73.1351 261.746,72.1351 258.5,72.5C 258.5,76.1667 258.5,79.8333 258.5,83.5C 261.572,83.8174 264.572,83.4841 267.5,82.5C 268.248,80.6675 269.248,79.0009 270.5,77.5C 271.484,80.4281 271.817,83.4281 271.5,86.5C 264.137,86.8306 256.803,86.4973 249.5,85.5C 250.347,84.1552 251.513,83.1552 253,82.5C 253.667,74.8333 253.667,67.1667 253,59.5C 251.989,58.6634 250.822,58.33 249.5,58.5C 249.5,57.5 249.5,56.5 249.5,55.5 Z"/></g>
<g><path style="opacity:0.814" fill="#1e3376" d="M 277.5,55.5 C 282.844,55.334 288.177,55.5006 293.5,56C 299.341,57.1761 301.507,60.6761 300,66.5C 298.833,69 297,70.8333 294.5,72C 297.004,77.2005 300.337,81.7005 304.5,85.5C 302.235,86.6474 299.902,86.8141 297.5,86C 294.033,81.5509 290.7,77.0509 287.5,72.5C 285.834,77.3209 286.5,81.6543 289.5,85.5C 285.878,86.6586 282.211,86.8253 278.5,86C 277.167,85.3333 277.167,84.6667 278.5,84C 279.448,83.5172 280.448,83.3505 281.5,83.5C 281.666,75.4931 281.5,67.4931 281,59.5C 278.929,58.8971 277.762,57.5638 277.5,55.5 Z M 286.5,58.5 C 294.085,58.7205 296.085,62.0539 292.5,68.5C 290.591,69.3482 288.591,69.6816 286.5,69.5C 286.5,65.8333 286.5,62.1667 286.5,58.5 Z"/></g>
<g><path style="opacity:0.798" fill="#1e3376" d="M 314.5,55.5 C 318.767,55.203 322.934,55.5363 327,56.5C 327.218,59.2453 326.718,61.912 325.5,64.5C 323.953,63.2318 322.953,61.5652 322.5,59.5C 318.261,57.5371 315.261,58.7037 313.5,63C 314.167,64 314.833,65 315.5,66C 319.577,67.7869 323.41,69.9536 327,72.5C 329.868,78.4598 328.368,82.9598 322.5,86C 318.167,86.6667 313.833,86.6667 309.5,86C 308.556,83.2809 308.223,80.4475 308.5,77.5C 311.779,78.0306 313.113,80.0306 312.5,83.5C 315.187,83.6641 317.854,83.4974 320.5,83C 323.265,80.0337 322.932,77.367 319.5,75C 315.581,73.4597 312.081,71.2931 309,68.5C 306.955,62.2362 308.789,57.9028 314.5,55.5 Z"/></g>
<g><path style="opacity:0.833" fill="#1e3376" d="M 333.5,55.5 C 337.167,55.5 340.833,55.5 344.5,55.5C 344.5,56.5 344.5,57.5 344.5,58.5C 343.5,58.5 342.5,58.5 341.5,58.5C 341.5,66.8333 341.5,75.1667 341.5,83.5C 342.5,83.5 343.5,83.5 344.5,83.5C 344.5,84.5 344.5,85.5 344.5,86.5C 340.833,86.5 337.167,86.5 333.5,86.5C 333.5,85.5 333.5,84.5 333.5,83.5C 334.5,83.5 335.5,83.5 336.5,83.5C 336.5,75.1667 336.5,66.8333 336.5,58.5C 335.5,58.5 334.5,58.5 333.5,58.5C 333.5,57.5 333.5,56.5 333.5,55.5 Z"/></g>
<g><path style="opacity:0.738" fill="#1e3376" d="M 349.5,55.5 C 358.525,55.1685 367.525,55.5018 376.5,56.5C 375.787,58.7759 375.287,61.1093 375,63.5C 374.586,63.9574 374.086,64.2907 373.5,64.5C 372.232,62.6957 371.565,60.6957 371.5,58.5C 369.5,58.5 367.5,58.5 365.5,58.5C 365.5,66.8333 365.5,75.1667 365.5,83.5C 366.5,83.5 367.5,83.5 368.5,83.5C 368.5,84.5 368.5,85.5 368.5,86.5C 364.5,86.5 360.5,86.5 356.5,86.5C 356.5,85.5 356.5,84.5 356.5,83.5C 357.5,83.5 358.5,83.5 359.5,83.5C 359.5,75.1667 359.5,66.8333 359.5,58.5C 357.5,58.5 355.5,58.5 353.5,58.5C 353.167,60.5 352.833,62.5 352.5,64.5C 351.5,64.5 350.5,64.5 349.5,64.5C 349.5,61.5 349.5,58.5 349.5,55.5 Z"/></g>
<g><path style="opacity:0.769" fill="#1e3376" d="M 377.5,55.5 C 381.5,55.5 385.5,55.5 389.5,55.5C 389.52,57.143 388.853,58.4763 387.5,59.5C 389.587,62.6728 391.421,66.0061 393,69.5C 394.706,65.9212 396.539,62.4212 398.5,59C 397.552,58.5172 396.552,58.3505 395.5,58.5C 395.5,57.5 395.5,56.5 395.5,55.5C 399.635,54.8898 403.301,55.7232 406.5,58C 404.671,58.2735 403.171,59.1068 402,60.5C 396.576,67.3177 394.076,74.9844 394.5,83.5C 396.346,83.2222 397.68,83.8888 398.5,85.5C 394.541,86.6599 390.541,86.8265 386.5,86C 385.167,85.3333 385.167,84.6667 386.5,84C 387.448,83.5172 388.448,83.3505 389.5,83.5C 389.665,80.1501 389.498,76.8168 389,73.5C 386.333,68.8333 383.667,64.1667 381,59.5C 379.989,58.6634 378.822,58.33 377.5,58.5C 377.5,57.5 377.5,56.5 377.5,55.5 Z"/></g>
<g><path style="opacity:0.797" fill="#1e3376" d="M 446.5,55.5 C 463.099,52.9328 470.266,59.9328 468,76.5C 465.479,83.6935 460.312,87.3602 452.5,87.5C 439.549,85.6902 434.715,78.3569 438,65.5C 439.261,60.7452 442.095,57.4118 446.5,55.5 Z M 448.5,58.5 C 454.694,56.9926 459.194,58.9926 462,64.5C 462.839,69.9212 462.506,75.2545 461,80.5C 455.373,85.7015 450.04,85.3682 445,79.5C 441.684,73.5184 441.684,67.5184 445,61.5C 446.145,60.3636 447.312,59.3636 448.5,58.5 Z"/></g>
<g><path style="opacity:0.734" fill="#1e3376" d="M 471.5,55.5 C 475.833,55.5 480.167,55.5 484.5,55.5C 484.5,56.5 484.5,57.5 484.5,58.5C 483.448,58.3505 482.448,58.5172 481.5,59C 483.333,62.1667 485.167,65.3333 487,68.5C 489.335,65.8338 491.169,62.8338 492.5,59.5C 491.263,58.7193 490.263,57.7193 489.5,56.5C 493.107,55.5108 496.774,55.1774 500.5,55.5C 500.5,56.5 500.5,57.5 500.5,58.5C 499.178,58.33 498.011,58.6634 497,59.5C 494.667,63.5 492.333,67.5 490,71.5C 489.501,75.4862 489.334,79.4862 489.5,83.5C 490.5,83.5 491.5,83.5 492.5,83.5C 492.5,84.5 492.5,85.5 492.5,86.5C 488.5,86.5 484.5,86.5 480.5,86.5C 480.5,85.5 480.5,84.5 480.5,83.5C 481.5,83.5 482.5,83.5 483.5,83.5C 483.665,79.8183 483.499,76.1516 483,72.5C 480.667,68.5 478.333,64.5 476,60.5C 474.89,58.9632 473.39,58.2965 471.5,58.5C 471.5,57.5 471.5,56.5 471.5,55.5 Z"/></g>
<g><path style="opacity:0.805" fill="#1e3376" d="M 512.5,55.5 C 529.989,52.822 537.156,60.1553 534,77.5C 531.075,83.8052 526.075,87.1386 519,87.5C 506.118,85.774 501.118,78.4406 504,65.5C 505.261,60.7452 508.095,57.4118 512.5,55.5 Z M 514.5,58.5 C 524.131,56.9936 529.131,61.1603 529.5,71C 529.344,81.5162 524.344,85.5162 514.5,83C 512.19,81.3626 510.69,79.196 510,76.5C 509.333,72.5 509.333,68.5 510,64.5C 510.804,61.8541 512.304,59.8541 514.5,58.5 Z"/></g>
<g><path style="opacity:1" fill="#705581" d="M 95.5,34.5 C 95.5,54.5 95.5,74.5 95.5,94.5C 94.5084,94.6716 93.8417,94.3382 93.5,93.5C 94.8333,74.5 94.8333,55.5 93.5,36.5C 93.8333,35.5 94.5,34.8333 95.5,34.5 Z"/></g>
<g><path style="opacity:1" fill="#d04730" d="M 63.5,53.5 C 63.4142,54.4959 63.7476,55.3292 64.5,56C 67.8168,56.4983 71.1501,56.665 74.5,56.5C 79.7218,64.5949 84.7218,72.9282 89.5,81.5C 89.0431,82.2975 88.3764,82.6309 87.5,82.5C 86.853,80.8595 85.853,79.5261 84.5,78.5C 84.9382,78.5654 85.2716,78.3988 85.5,78C 81.8735,71.9145 78.3735,65.7479 75,59.5C 71.9509,58.3899 68.7842,57.7233 65.5,57.5C 65.634,59.2915 65.3007,60.9582 64.5,62.5C 63.7321,61.7375 63.2321,60.7375 63,59.5C 62.5983,60.8721 62.0983,62.2054 61.5,63.5C 61.9569,64.2975 62.6236,64.6309 63.5,64.5C 63.5,64.8333 63.5,65.1667 63.5,65.5C 61.3792,65.6747 59.3792,65.3414 57.5,64.5C 56.7659,63.2921 56.4326,61.9587 56.5,60.5C 57.1667,61.1667 57.8333,61.8333 58.5,62.5C 60.2962,63.7658 60.6295,63.4325 59.5,61.5C 61.1836,60.1456 61.6836,58.4789 61,56.5C 60.2015,60.4239 59.7015,60.4239 59.5,56.5C 59.8029,54.8857 60.4695,53.5523 61.5,52.5C 62.9245,50.9689 63.5912,51.3023 63.5,53.5 Z"/></g>
<g><path style="opacity:1" fill="#f6d09f" d="M 58.5,52.5 C 58.5,55.8333 58.5,59.1667 58.5,62.5C 57.8333,61.8333 57.1667,61.1667 56.5,60.5C 56.9628,57.6697 57.6295,55.003 58.5,52.5 Z"/></g>
<g><path style="opacity:1" fill="#cec6ce" d="M 55.5,59.5 C 53.7548,60.8063 51.7548,61.8063 49.5,62.5C 51.289,63.623 51.6224,64.9564 50.5,66.5C 49.4593,64.0087 48.6259,64.0087 48,66.5C 47.2588,65.3595 46.4255,65.3595 45.5,66.5C 44.7025,66.0431 44.3691,65.3764 44.5,64.5C 45.4072,59.6024 48.4072,57.269 53.5,57.5C 54.7133,57.7472 55.38,58.4138 55.5,59.5 Z"/></g>
<g><path style="opacity:1" fill="#e16365" d="M 58.5,51.5 C 59.391,52.1098 60.391,52.4431 61.5,52.5C 60.4695,53.5523 59.8029,54.8857 59.5,56.5C 59.7015,60.4239 60.2015,60.4239 61,56.5C 61.6836,58.4789 61.1836,60.1456 59.5,61.5C 60.6295,63.4325 60.2962,63.7658 58.5,62.5C 58.5,59.1667 58.5,55.8333 58.5,52.5C 58.5,52.1667 58.5,51.8333 58.5,51.5 Z"/></g>
<g><path style="opacity:1" fill="#243a79" d="M 93.5,36.5 C 94.8333,55.5 94.8333,74.5 93.5,93.5C 90.1667,89.8333 86.8333,86.1667 83.5,82.5C 84.8333,82.5 86.1667,82.5 87.5,82.5C 88.3764,82.6309 89.0431,82.2975 89.5,81.5C 84.7218,72.9282 79.7218,64.5949 74.5,56.5C 80.8333,49.8333 87.1667,43.1667 93.5,36.5 Z"/></g>
<g><path style="opacity:1" fill="#323771" d="M 26.5,36.5 C 32.8611,43.193 39.1944,49.8597 45.5,56.5C 41.0935,64.9288 37.0935,73.5955 33.5,82.5C 34.8333,82.5 36.1667,82.5 37.5,82.5C 33.8051,86.5259 30.1384,90.5259 26.5,94.5C 25.1667,75.1667 25.1667,55.8333 26.5,36.5 Z"/></g>
<g><path style="opacity:1" fill="#dd8541" d="M 64.5,62.5 C 64.6716,63.4916 64.3382,64.1583 63.5,64.5C 62.6236,64.6309 61.9569,64.2975 61.5,63.5C 62.0983,62.2054 62.5983,60.8721 63,59.5C 63.2321,60.7375 63.7321,61.7375 64.5,62.5 Z"/></g>
<g><path style="opacity:1" fill="#d5c8d2" d="M 55.5,60.5 C 55.8333,60.5 56.1667,60.5 56.5,60.5C 56.4326,61.9587 56.7659,63.2921 57.5,64.5C 57.5,68.8333 57.5,73.1667 57.5,77.5C 54.0388,75.9089 50.3721,75.2422 46.5,75.5C 47.1593,72.5918 47.9926,72.2584 49,74.5C 49.5764,71.8758 50.9098,71.2092 53,72.5C 54.8141,71.1486 54.4808,70.1486 52,69.5C 51.6667,69.8333 51.3333,70.1667 51,70.5C 50.5172,69.552 50.3505,68.552 50.5,67.5C 51.8734,67.6567 53.2068,67.49 54.5,67C 53.6919,66.6924 53.0253,66.1924 52.5,65.5C 54.297,64.3049 55.297,62.6382 55.5,60.5 Z"/></g>
<g><path style="opacity:1" fill="#e7e0e3" d="M 55.5,59.5 C 55.5,59.8333 55.5,60.1667 55.5,60.5C 55.297,62.6382 54.297,64.3049 52.5,65.5C 53.0253,66.1924 53.6919,66.6924 54.5,67C 53.2068,67.49 51.8734,67.6567 50.5,67.5C 50.3505,68.552 50.5172,69.552 51,70.5C 51.3333,70.1667 51.6667,69.8333 52,69.5C 54.4808,70.1486 54.8141,71.1486 53,72.5C 50.9098,71.2092 49.5764,71.8758 49,74.5C 47.9926,72.2584 47.1593,72.5918 46.5,75.5C 43.0383,76.1557 39.8716,77.489 37,79.5C 36.8333,79 36.6667,78.5 36.5,78C 38.8084,73.2053 41.475,68.7053 44.5,64.5C 44.3691,65.3764 44.7025,66.0431 45.5,66.5C 46.4255,65.3595 47.2588,65.3595 48,66.5C 48.6259,64.0087 49.4593,64.0087 50.5,66.5C 51.6224,64.9564 51.289,63.623 49.5,62.5C 51.7548,61.8063 53.7548,60.8063 55.5,59.5 Z"/></g>
<g><path style="opacity:1" fill="#e3dbe1" d="M 84.5,78.5 C 77.644,76.8424 70.644,76.1758 63.5,76.5C 63.5,72.8333 63.5,69.1667 63.5,65.5C 63.5,65.1667 63.5,64.8333 63.5,64.5C 64.3382,64.1583 64.6716,63.4916 64.5,62.5C 65.3007,60.9582 65.634,59.2915 65.5,57.5C 68.7842,57.7233 71.9509,58.3899 75,59.5C 78.3735,65.7479 81.8735,71.9145 85.5,78C 85.2716,78.3988 84.9382,78.5654 84.5,78.5 Z"/></g>
<g><path style="opacity:1" fill="#895b1f" d="M 57.5,64.5 C 59.3792,65.3414 61.3792,65.6747 63.5,65.5C 63.5,69.1667 63.5,72.8333 63.5,76.5C 63.5,78.8333 63.5,81.1667 63.5,83.5C 62.5184,86.9619 62.185,90.6286 62.5,94.5C 61.1667,94.5 59.8333,94.5 58.5,94.5C 58.9643,90.4975 58.2976,86.8309 56.5,83.5C 57.4614,81.7354 57.7947,79.7354 57.5,77.5C 57.5,73.1667 57.5,68.8333 57.5,64.5 Z"/></g>
<g><path style="opacity:1" fill="#e43623" d="M 63.5,76.5 C 70.644,76.1758 77.644,76.8424 84.5,78.5C 85.853,79.5261 86.853,80.8595 87.5,82.5C 86.1667,82.5 84.8333,82.5 83.5,82.5C 78.8333,82.5 74.1667,82.5 69.5,82.5C 67.3792,82.3253 65.3792,82.6586 63.5,83.5C 63.5,81.1667 63.5,78.8333 63.5,76.5 Z"/></g>
<g><path style="opacity:0.672" fill="#1e3376" d="M 410.5,80.5 C 416.549,80.91 418.049,83.91 415,89.5C 413.649,91.019 412.149,92.3523 410.5,93.5C 409.5,93.1667 408.833,92.5 408.5,91.5C 409.711,90.1255 410.711,88.6255 411.5,87C 409.551,85.0153 409.218,82.8487 410.5,80.5 Z"/></g>
<g><path style="opacity:1" fill="#e33728" d="M 57.5,50.5 C 58.1667,50.5 58.5,50.8333 58.5,51.5C 58.5,51.8333 58.5,52.1667 58.5,52.5C 57.6295,55.003 56.9628,57.6697 56.5,60.5C 56.1667,60.5 55.8333,60.5 55.5,60.5C 55.5,60.1667 55.5,59.8333 55.5,59.5C 55.38,58.4138 54.7133,57.7472 53.5,57.5C 48.4072,57.269 45.4072,59.6024 44.5,64.5C 41.475,68.7053 38.8084,73.2053 36.5,78C 36.6667,78.5 36.8333,79 37,79.5C 39.8716,77.489 43.0383,76.1557 46.5,75.5C 50.3721,75.2422 54.0388,75.9089 57.5,77.5C 57.7947,79.7354 57.4614,81.7354 56.5,83.5C 54.6208,82.6586 52.6208,82.3253 50.5,82.5C 46.1667,82.5 41.8333,82.5 37.5,82.5C 36.1667,82.5 34.8333,82.5 33.5,82.5C 37.0935,73.5955 41.0935,64.9288 45.5,56.5C 48.8333,56.5 52.1667,56.5 55.5,56.5C 55.5,54.8333 55.5,53.1667 55.5,51.5C 56.1667,51.1667 56.8333,50.8333 57.5,50.5 Z"/></g>
<g><path style="opacity:1" fill="#f0eeee" d="M 69.5,82.5 C 74.1667,82.5 78.8333,82.5 83.5,82.5C 86.8333,86.1667 90.1667,89.8333 93.5,93.5C 93.8417,94.3382 94.5084,94.6716 95.5,94.5C 95.5,94.8333 95.5,95.1667 95.5,95.5C 92.274,97.8771 88.6073,98.8771 84.5,98.5C 79.5,93.1667 74.5,87.8333 69.5,82.5 Z"/></g>
<g><path style="opacity:1" fill="#f1edec" d="M 37.5,82.5 C 41.8333,82.5 46.1667,82.5 50.5,82.5C 45.8333,88.1667 41.1667,93.8333 36.5,99.5C 33.9455,98.612 31.2788,98.2786 28.5,98.5C 27.8333,97.1667 27.1667,95.8333 26.5,94.5C 30.1384,90.5259 33.8051,86.5259 37.5,82.5 Z"/></g>
<g><path style="opacity:0.181" fill="#0e0805" d="M 114.5,93.5 C 115.497,93.4701 116.164,93.9701 116.5,95C 115.68,96.8003 115.014,98.6336 114.5,100.5C 113.609,99.8902 112.609,99.5569 111.5,99.5C 112.11,98.609 112.443,97.609 112.5,96.5C 113.167,95.5 113.833,94.5 114.5,93.5 Z"/></g>
<g><path style="opacity:1" fill="#283674" d="M 50.5,82.5 C 52.6208,82.3253 54.6208,82.6586 56.5,83.5C 58.2976,86.8309 58.9643,90.4975 58.5,94.5C 59.8333,94.5 61.1667,94.5 62.5,94.5C 62.185,90.6286 62.5184,86.9619 63.5,83.5C 65.3792,82.6586 67.3792,82.3253 69.5,82.5C 74.5,87.8333 79.5,93.1667 84.5,98.5C 76.592,101.543 68.2587,103.209 59.5,103.5C 51.7309,102.679 44.0642,101.346 36.5,99.5C 41.1667,93.8333 45.8333,88.1667 50.5,82.5 Z"/></g>
<g><path style="opacity:0.641" fill="#d69b3a" d="M 193.5,95.5 C 195.912,95.6941 196.912,97.0274 196.5,99.5C 195.167,99.5 193.833,99.5 192.5,99.5C 192.433,98.0413 192.766,96.7079 193.5,95.5 Z"/></g>
<g><path style="opacity:0.733" fill="#f6bb59" d="M 288.5,95.5 C 289.5,95.5 290.5,95.5 291.5,95.5C 290.378,100.87 289.045,106.204 287.5,111.5C 287.667,112.167 287.833,112.833 288,113.5C 288.508,111.096 289.675,110.429 291.5,111.5C 289.99,115.859 287.49,116.859 284,114.5C 281.333,117.167 278.667,117.167 276,114.5C 274.207,104.804 278.041,100.47 287.5,101.5C 287.5,100.5 287.5,99.5 287.5,98.5C 286.325,98.719 285.325,98.3857 284.5,97.5C 285.949,96.8281 287.282,96.1614 288.5,95.5 Z M 281.5,103.5 C 283.635,103.147 284.968,103.98 285.5,106C 285.095,109.28 283.595,111.78 281,113.5C 279.268,113.266 278.434,112.266 278.5,110.5C 279.237,108.03 280.237,105.696 281.5,103.5 Z"/></g>
<g><path style="opacity:0.76" fill="#ebb14f" d="M 356.5,95.5 C 357.5,95.5 358.5,95.5 359.5,95.5C 359.575,98.2062 359.908,100.873 360.5,103.5C 359.5,103.5 358.5,103.5 357.5,103.5C 356.865,106.873 356.365,110.206 356,113.5C 360.198,109.372 361.031,109.872 358.5,115C 354.933,117.538 352.933,116.705 352.5,112.5C 352.854,109.749 353.521,107.083 354.5,104.5C 353.147,103.476 352.48,102.143 352.5,100.5C 355.47,100.254 356.803,98.5876 356.5,95.5 Z"/></g>
<g><path style="opacity:0.887" fill="#d09432" d="M 171.5,95.5 C 173.912,95.6941 174.912,97.0274 174.5,99.5C 173.167,99.5 171.833,99.5 170.5,99.5C 170.433,98.0413 170.766,96.7079 171.5,95.5 Z"/></g>
<g><path style="opacity:0.837" fill="#f4ba58" d="M 327.5,96.5 C 330.247,96.1866 332.914,96.52 335.5,97.5C 332.522,101.891 330.522,106.724 329.5,112C 332.206,114.423 331.539,115.59 327.5,115.5C 326.167,115.167 324.833,114.833 323.5,114.5C 326.143,110.797 327.81,106.63 328.5,102C 328.156,100.635 327.489,99.4682 326.5,98.5C 326.863,97.8165 327.196,97.1499 327.5,96.5 Z"/></g>
<g><path style="opacity:0.802" fill="#e3a847" d="M 380.5,95.5 C 381.5,95.5 382.5,95.5 383.5,95.5C 382.686,101.112 381.353,106.612 379.5,112C 379.667,112.5 379.833,113 380,113.5C 380.508,111.096 381.675,110.429 383.5,111.5C 382.658,114.738 380.658,116.238 377.5,116C 376.892,114.769 376.559,113.436 376.5,112C 377.581,107.512 378.581,103.012 379.5,98.5C 378.448,98.6495 377.448,98.4828 376.5,98C 377.858,97.0656 379.192,96.2323 380.5,95.5 Z"/></g>
<g><path style="opacity:1" fill="#b37f22" d="M 100.5,15.5 C 100.333,42.1687 100.5,68.8354 101,95.5C 101.383,94.944 101.883,94.6107 102.5,94.5C 106.306,94.588 109.972,93.9213 113.5,92.5C 114.107,92.6236 114.44,92.9569 114.5,93.5C 113.833,94.5 113.167,95.5 112.5,96.5C 109.088,97.0132 105.755,97.8466 102.5,99C 105.426,99.687 106.759,101.52 106.5,104.5C 106.833,105.167 107.167,105.833 107.5,106.5C 106.833,106.5 106.5,106.833 106.5,107.5C 104.896,106.713 104.229,105.38 104.5,103.5C 102.901,103.768 101.568,103.434 100.5,102.5C 98.9581,101.837 97.2914,101.17 95.5,100.5C 96.0253,99.8076 96.6919,99.3076 97.5,99C 96.1772,98.1841 95.5106,97.0174 95.5,95.5C 95.5,95.1667 95.5,94.8333 95.5,94.5C 95.5,74.5 95.5,54.5 95.5,34.5C 95.5,31.5 95.5,28.5 95.5,25.5C 93.1667,25.5 90.8333,25.5 88.5,25.5C 85.3752,24.5206 82.0419,24.1872 78.5,24.5C 81.8333,23.8333 85.1667,23.1667 88.5,22.5C 89.7498,22.4226 90.5831,21.756 91,20.5C 91.5691,24.3605 92.4024,24.3605 93.5,20.5C 94.8813,22.9288 95.8813,22.5954 96.5,19.5C 96.5,18.1667 96.5,16.8333 96.5,15.5C 97.8333,15.5 99.1667,15.5 100.5,15.5 Z"/></g>
<g><path style="opacity:1" fill="#434476" d="M 112.5,96.5 C 112.443,97.609 112.11,98.609 111.5,99.5C 110.35,101.267 111.017,102.433 113.5,103C 111.323,104.202 108.989,104.702 106.5,104.5C 106.759,101.52 105.426,99.687 102.5,99C 105.755,97.8466 109.088,97.0132 112.5,96.5 Z"/></g>
<g><path style="opacity:0.954" fill="#d49938" d="M 426.5,95.5 C 427.5,95.5 428.5,95.5 429.5,95.5C 429.579,96.9305 429.246,98.2638 428.5,99.5C 429.853,100.524 430.52,101.857 430.5,103.5C 429.5,103.5 428.5,103.5 427.5,103.5C 426.661,106.835 426.161,110.168 426,113.5C 427.171,111.384 428.671,110.718 430.5,111.5C 428.397,115.672 425.563,116.672 422,114.5C 422.267,110.929 423.1,107.429 424.5,104C 423.5,103.667 422.5,103.333 421.5,103C 422.308,101.294 423.641,100.461 425.5,100.5C 425.629,98.7839 425.962,97.1172 426.5,95.5 Z"/></g>
<g><path style="opacity:1" fill="#a16f1d" d="M 111.5,99.5 C 112.609,99.5569 113.609,99.8902 114.5,100.5C 116.685,100.704 118.685,101.37 120.5,102.5C 120.209,103.649 119.376,104.316 118,104.5C 114.499,105.234 110.999,105.9 107.5,106.5C 107.167,105.833 106.833,105.167 106.5,104.5C 108.989,104.702 111.323,104.202 113.5,103C 111.017,102.433 110.35,101.267 111.5,99.5 Z"/></g>
<g><path style="opacity:0.715" fill="#ca902e" d="M 155.5,100.5 C 158.5,101.833 161.5,101.833 164.5,100.5C 163.174,104.791 162.341,109.124 162,113.5C 162.833,112.5 163.667,111.5 164.5,110.5C 165.412,113.645 164.079,115.645 160.5,116.5C 158.567,114.436 156.4,114.436 154,116.5C 152.527,116.097 151.194,115.43 150,114.5C 148.268,108.314 150.101,103.647 155.5,100.5 Z M 155.5,103.5 C 156.833,103.5 158.167,103.5 159.5,103.5C 160.38,108.022 158.88,111.355 155,113.5C 153.699,112.902 152.865,111.902 152.5,110.5C 153.32,108.026 154.32,105.693 155.5,103.5 Z"/></g>
<g><path style="opacity:0.716" fill="#d29735" d="M 183.5,106.5 C 188.265,112.918 186.598,116.085 178.5,116C 176.277,115.348 175.11,113.848 175,111.5C 174.127,115.06 171.96,116.56 168.5,116C 167.941,115.275 167.608,114.442 167.5,113.5C 168.76,110.577 169.26,107.577 169,104.5C 164.503,106.603 164.336,105.769 168.5,102C 170.134,101.506 171.801,101.34 173.5,101.5C 173.142,105.703 172.309,109.703 171,113.5C 173.196,110.875 176.03,109.875 179.5,110.5C 179.5,111.5 179.5,112.5 179.5,113.5C 180.5,113.5 181.5,113.5 182.5,113.5C 182.649,112.448 182.483,111.448 182,110.5C 175.361,104.873 176.194,101.706 184.5,101C 187.346,101.879 188.013,103.546 186.5,106C 185.552,106.483 184.552,106.649 183.5,106.5 Z M 183.5,106.5 C 181.148,105.457 180.981,104.124 183,102.5C 183.49,103.793 183.657,105.127 183.5,106.5 Z"/></g>
<g><path style="opacity:0.873" fill="#dea443" d="M 217.5,115.5 C 216.928,114.027 216.095,112.693 215,111.5C 213.65,115.001 211.316,116.334 208,115.5C 207.356,111.859 207.856,108.359 209.5,105C 208.352,103.274 207.185,103.441 206,105.5C 204.377,108.327 203.21,111.327 202.5,114.5C 201.675,115.386 200.675,115.719 199.5,115.5C 200.671,111.496 201.504,107.496 202,103.5C 201.221,104.728 200.221,105.728 199,106.5C 197.743,106.15 197.409,105.483 198,104.5C 199.117,102.876 200.617,101.876 202.5,101.5C 205.74,101.976 209.073,101.976 212.5,101.5C 212.416,105.318 211.916,108.985 211,112.5C 212.307,111.228 213.807,110.228 215.5,109.5C 216.105,104.599 218.772,101.599 223.5,100.5C 224.748,101.04 225.915,101.707 227,102.5C 227.71,101.027 228.876,100.36 230.5,100.5C 229.286,106.688 227.453,112.688 225,118.5C 221.434,121.273 218.267,121.106 215.5,118C 215.639,116.699 216.305,115.866 217.5,115.5 Z M 222.5,103.5 C 223.5,103.5 224.5,103.5 225.5,103.5C 226.25,107.741 224.917,111.074 221.5,113.5C 220.054,112.829 219.388,111.662 219.5,110C 219.84,107.489 220.84,105.322 222.5,103.5 Z M 217.5,115.5 C 219.288,115.215 220.955,115.548 222.5,116.5C 220.377,119.223 218.71,118.889 217.5,115.5 Z"/></g>
<g><path style="opacity:0.93" fill="#e8ae4d" d="M 259.5,107.5 C 258.357,107.908 257.357,108.575 256.5,109.5C 255.949,112.056 254.949,114.389 253.5,116.5C 251.352,115.242 249.185,115.242 247,116.5C 240.658,115.477 237.991,111.811 239,105.5C 240.219,99.7773 243.719,96.7773 249.5,96.5C 251.945,97.111 254.278,97.111 256.5,96.5C 257.975,99.2914 257.475,101.625 255,103.5C 251.824,97.4063 248.158,97.073 244,102.5C 243.5,104.5 243,106.5 242.5,108.5C 243.217,112.525 245.55,114.025 249.5,113C 251.032,112.3 252.032,111.134 252.5,109.5C 251.147,108.476 250.48,107.143 250.5,105.5C 254.012,104.945 257.012,105.612 259.5,107.5 Z"/></g>
<g><path style="opacity:0.703" fill="#d89d3b" d="M 413.5,100.5 C 417.171,99.9985 419.505,101.498 420.5,105C 419.667,107.5 418.167,108 416,106.5C 416.263,105.049 416.096,103.716 415.5,102.5C 412.476,104.061 410.809,106.561 410.5,110C 411.147,111.609 411.98,113.109 413,114.5C 414.973,113.36 416.807,112.027 418.5,110.5C 419.089,112.373 418.422,114.04 416.5,115.5C 408.643,116.797 405.81,113.464 408,105.5C 409.406,103.256 411.239,101.59 413.5,100.5 Z"/></g>
<g><path style="opacity:0.793" fill="#d59b39" d="M 190.5,101.5 C 192.167,101.5 193.833,101.5 195.5,101.5C 195.462,104.951 194.795,108.284 193.5,111.5C 193.667,112.167 193.833,112.833 194,113.5C 194.508,111.096 195.675,110.429 197.5,111.5C 195.5,116.549 192.833,117.216 189.5,113.5C 190.654,110.898 191.154,108.232 191,105.5C 190.107,106.711 189.274,106.711 188.5,105.5C 189.18,104.14 189.847,102.807 190.5,101.5 Z"/></g>
<g><path style="opacity:0.829" fill="#efb553" d="M 259.5,107.5 C 261.273,102.285 264.939,100.118 270.5,101C 275.532,108.198 273.865,113.365 265.5,116.5C 260.782,115.414 258.782,112.414 259.5,107.5 Z M 266.5,102.5 C 267.496,102.414 268.329,102.748 269,103.5C 269.893,106.916 269.393,110.083 267.5,113C 266.207,113.49 264.873,113.657 263.5,113.5C 262.944,109.334 263.944,105.668 266.5,102.5 Z"/></g>
<g><path style="opacity:0.792" fill="#efb553" d="M 336.5,101.5 C 338.766,101.141 340.599,101.808 342,103.5C 344.643,100.818 347.143,100.984 349.5,104C 348.231,107.125 347.398,110.292 347,113.5C 347.779,112.272 348.779,111.272 350,110.5C 351.257,110.85 351.591,111.517 351,112.5C 349.181,115.257 346.848,116.257 344,115.5C 343.531,112.056 344.031,108.722 345.5,105.5C 344.637,103.128 343.471,103.128 342,105.5C 340.601,108.363 339.601,111.363 339,114.5C 337.817,115.731 336.651,115.731 335.5,114.5C 336.346,111.452 337.346,108.452 338.5,105.5C 338.167,105.167 337.833,104.833 337.5,104.5C 336.833,105.167 336.167,105.833 335.5,106.5C 334.348,104.603 334.681,102.936 336.5,101.5 Z"/></g>
<g><path style="opacity:0.843" fill="#cc9230" d="M 465.5,111.5 C 464.503,113.994 462.67,115.66 460,116.5C 458.739,116.241 457.739,115.574 457,114.5C 452.757,117.53 449.757,116.53 448,111.5C 446.191,115.766 443.524,116.766 440,114.5C 436.744,117.523 434.244,117.023 432.5,113C 433.769,109.875 434.602,106.708 435,103.5C 434.221,104.728 433.221,105.728 432,106.5C 431.5,106.167 431,105.833 430.5,105.5C 432.14,102.278 434.807,100.944 438.5,101.5C 438.462,104.951 437.795,108.284 436.5,111.5C 436.833,112.167 437.167,112.833 437.5,113.5C 440.446,110.009 442.446,106.009 443.5,101.5C 444.325,100.614 445.325,100.281 446.5,100.5C 445.488,104.866 444.655,109.2 444,113.5C 444.908,111.561 446.408,110.561 448.5,110.5C 448.801,105.215 451.467,101.882 456.5,100.5C 457.748,101.04 458.915,101.707 460,102.5C 460.71,101.027 461.876,100.36 463.5,100.5C 462.488,104.866 461.655,109.2 461,113.5C 461.779,112.272 462.779,111.272 464,110.5C 464.765,110.57 465.265,110.903 465.5,111.5 Z M 455.5,103.5 C 456.5,103.5 457.5,103.5 458.5,103.5C 459.38,108.022 457.88,111.355 454,113.5C 452.831,112.991 451.998,112.158 451.5,111C 452.449,108.266 453.783,105.766 455.5,103.5 Z"/></g>
<g><path style="opacity:0.215" fill="#070400" d="M 120.5,102.5 C 121.954,103.52 122.287,104.687 121.5,106C 117.553,107.154 113.553,107.987 109.5,108.5C 109.67,109.822 109.337,110.989 108.5,112C 92.8683,115.324 77.2017,118.491 61.5,121.5C 46.5121,118.621 31.5121,115.787 16.5,113C 14.8807,112.764 13.8807,111.931 13.5,110.5C 29.1708,113.367 44.8375,116.367 60.5,119.5C 76.0376,115.744 91.7043,112.744 107.5,110.5C 107.5,109.167 107.5,107.833 107.5,106.5C 110.999,105.9 114.499,105.234 118,104.5C 119.376,104.316 120.209,103.649 120.5,102.5 Z"/></g>
<g><path style="opacity:0.932" fill="#c38826" d="M 481.5,106.5 C 485.802,111.583 484.635,114.917 478,116.5C 475.541,116.11 473.874,114.776 473,112.5C 469.476,118.134 466.976,117.801 465.5,111.5C 466.998,107.671 468.332,103.671 469.5,99.5C 468.5,98.8333 467.5,98.1667 466.5,97.5C 468.608,96.0562 470.941,95.3896 473.5,95.5C 471.79,101.444 470.623,107.444 470,113.5C 471.73,110.452 474.23,109.786 477.5,111.5C 477.291,112.086 476.957,112.586 476.5,113C 477.793,113.49 479.127,113.657 480.5,113.5C 480.405,110.728 479.071,108.728 476.5,107.5C 474.795,102.155 476.795,99.9886 482.5,101C 486.801,103.871 486.468,105.705 481.5,106.5 Z M 481.5,106.5 C 477.706,105.761 477.539,104.427 481,102.5C 481.49,103.793 481.657,105.127 481.5,106.5 Z"/></g>
<g><path style="opacity:1" fill="#3c346b" d="M 13.5,100.5 C 13.5,101.5 13.5,102.5 13.5,103.5C 12.0536,104.613 10.3869,104.78 8.5,104C 12.0471,101.955 12.0471,99.6216 8.5,97C 11.4551,97.4189 14.4551,98.0855 17.5,99C 15.9419,99.21 14.6085,99.71 13.5,100.5 Z"/></g>
<g><path style="opacity:0.826" fill="#fbc15f" d="M 303.5,115.5 C 302.303,111.942 302.636,108.442 304.5,105C 304.333,104.5 304.167,104 304,103.5C 303.174,105.405 302.007,105.739 300.5,104.5C 302.071,101.907 304.404,100.907 307.5,101.5C 307.806,105.198 307.139,108.698 305.5,112C 307.603,113.364 309.103,112.53 310,109.5C 311.145,106.568 311.978,103.568 312.5,100.5C 313.5,100.5 314.5,100.5 315.5,100.5C 314.783,106.369 313.283,112.036 311,117.5C 307.369,121.388 303.869,121.388 300.5,117.5C 301.005,116.081 302.005,115.415 303.5,115.5 Z M 303.5,115.5 C 308.719,114.907 309.386,115.907 305.5,118.5C 304.575,117.643 303.908,116.643 303.5,115.5 Z"/></g>
<g><path style="opacity:0.955" fill="#e1a644" d="M 389.5,95.5 C 390.5,95.5 391.5,95.5 392.5,95.5C 391.378,100.87 390.045,106.204 388.5,111.5C 388.667,112.167 388.833,112.833 389,113.5C 389.508,111.096 390.675,110.429 392.5,111.5C 391.5,113.833 389.833,115.5 387.5,116.5C 386.167,115.833 385.167,114.833 384.5,113.5C 385.629,108.78 386.962,104.113 388.5,99.5C 387.5,98.8333 386.5,98.1667 385.5,97.5C 386.949,96.8281 388.282,96.1614 389.5,95.5 Z"/></g>
<g><path style="opacity:1" fill="#bf8631" d="M 95.5,95.5 C 95.5106,97.0174 96.1772,98.1841 97.5,99C 96.6919,99.3076 96.0253,99.8076 95.5,100.5C 97.2914,101.17 98.9581,101.837 100.5,102.5C 92.081,103.521 83.7476,105.021 75.5,107C 73.2774,107.566 71.2774,108.4 69.5,109.5C 66.9407,109.198 64.6074,109.532 62.5,110.5C 59.1667,110.167 55.8333,109.833 52.5,109.5C 50.6976,108.542 48.6976,107.875 46.5,107.5C 43.8728,106.908 41.2062,106.575 38.5,106.5C 36.9582,105.699 35.2915,105.366 33.5,105.5C 29.7668,104.387 26.1001,103.387 22.5,102.5C 23.8333,102.5 25.1667,102.5 26.5,102.5C 26.1568,100.517 26.8235,99.1834 28.5,98.5C 31.2788,98.2786 33.9455,98.612 36.5,99.5C 44.0642,101.346 51.7309,102.679 59.5,103.5C 68.2587,103.209 76.592,101.543 84.5,98.5C 88.6073,98.8771 92.274,97.8771 95.5,95.5 Z"/></g>
<g><path style="opacity:1" fill="#988eac" d="M 101.5,108.5 C 100.432,109.434 99.099,109.768 97.5,109.5C 98.2625,108.732 99.2625,108.232 100.5,108C 95.2708,106.015 95.6042,104.848 101.5,104.5C 101.5,105.833 101.5,107.167 101.5,108.5 Z"/></g>
<g><path style="opacity:1" fill="#e8ad4b" d="M 368.5,100.5 C 374.297,100.592 375.631,102.925 372.5,107.5C 370.535,108.292 368.535,108.959 366.5,109.5C 365.571,110.689 365.238,112.022 365.5,113.5C 368.642,112.785 371.642,111.952 374.5,111C 371.182,116.671 367.016,117.504 362,113.5C 360.992,107.516 363.159,103.182 368.5,100.5 Z M 368.5,102.5 C 371.047,104.29 370.714,105.956 367.5,107.5C 366.799,105.808 367.133,104.142 368.5,102.5 Z"/></g>
<g><path style="opacity:0.132" fill="#070400" d="M 2.5,105.5 C 5.83939,105.89 9.17272,106.39 12.5,107C 13.2524,107.671 13.5858,108.504 13.5,109.5C 10.5648,108.731 7.56479,108.064 4.5,107.5C 3.28665,107.253 2.61998,106.586 2.5,105.5 Z"/></g>
<g><path style="opacity:1" fill="#393971" d="M 15.5,101.5 C 17.7638,102.219 20.0971,102.552 22.5,102.5C 26.1001,103.387 29.7668,104.387 33.5,105.5C 30.9824,107.357 30.9824,109.19 33.5,111C 32.9056,111.464 32.2389,111.631 31.5,111.5C 27.5752,111.57 23.9085,110.903 20.5,109.5C 18.8333,109.5 17.1667,109.5 15.5,109.5C 15.5,106.833 15.5,104.167 15.5,101.5 Z"/></g>
<g><path style="opacity:1" fill="#726592" d="M 33.5,105.5 C 35.2915,105.366 36.9582,105.699 38.5,106.5C 38.4257,108.411 37.4257,109.578 35.5,110C 37.1193,110.236 38.1193,111.069 38.5,112.5C 35.9407,112.802 33.6074,112.468 31.5,111.5C 32.2389,111.631 32.9056,111.464 33.5,111C 30.9824,109.19 30.9824,107.357 33.5,105.5 Z"/></g>
<g><path style="opacity:0.954" fill="#f9c05d" d="M 296.5,95.5 C 297.873,95.3433 299.207,95.51 300.5,96C 298.564,101.793 297.064,107.626 296,113.5C 296.906,111.388 298.406,110.555 300.5,111C 299.073,114.835 296.573,116.335 293,115.5C 292.856,110.379 293.69,105.379 295.5,100.5C 295.081,99.3279 294.415,98.3279 293.5,97.5C 294.602,96.8243 295.602,96.1577 296.5,95.5 Z"/></g>
<g><path style="opacity:0.653" fill="#dca241" d="M 400.5,100.5 C 404.605,100.496 406.105,102.496 405,106.5C 402.507,108.336 399.674,109.336 396.5,109.5C 396.085,111.948 397.085,113.281 399.5,113.5C 401.405,112.935 403.071,111.935 404.5,110.5C 404.529,113.666 402.695,115.666 399,116.5C 393.773,114.651 392.106,110.985 394,105.5C 395.805,103.174 397.972,101.508 400.5,100.5 Z M 399.5,102.5 C 400.756,102.461 401.756,102.961 402.5,104C 397.787,108.98 396.787,108.48 399.5,102.5 Z"/></g>
<g><path style="opacity:1" fill="#9b8fb1" d="M 25.5,105.5 C 27.288,105.215 28.9547,105.548 30.5,106.5C 29.6034,106.669 28.6034,107.002 27.5,107.5C 31.41,109.57 31.0766,110.404 26.5,110C 25.6198,108.644 25.2865,107.144 25.5,105.5 Z"/></g>
<g><path style="opacity:1" fill="#9586ad" d="M 20.5,109.5 C 19.6993,107.958 19.366,106.292 19.5,104.5C 21.1667,104.5 22.8333,104.5 24.5,104.5C 24.5,106.167 24.5,107.833 24.5,109.5C 23.1667,109.5 21.8333,109.5 20.5,109.5 Z"/></g>
<g><path style="opacity:0.828" fill="#c48928" d="M 132.5,96.5 C 136.514,96.3345 140.514,96.5012 144.5,97C 148.126,98.7215 148.959,101.222 147,104.5C 145.601,105.227 144.101,105.727 142.5,106C 143.956,108.266 144.79,110.766 145,113.5C 145.508,111.096 146.675,110.429 148.5,111.5C 147.3,116.362 144.8,117.362 141,114.5C 140.503,112.19 140.337,109.857 140.5,107.5C 135.439,108.072 134.439,110.405 137.5,114.5C 134.833,115.833 132.167,115.833 129.5,114.5C 133.534,108.815 134.534,102.815 132.5,96.5 Z M 138.5,99.5 C 140.75,99.1814 142.75,99.6814 144.5,101C 142.99,103.755 140.657,104.921 137.5,104.5C 137.629,102.784 137.962,101.117 138.5,99.5 Z"/></g>
<g><path style="opacity:1" fill="#3f4178" d="M 100.5,102.5 C 101.568,103.434 102.901,103.768 104.5,103.5C 104.229,105.38 104.896,106.713 106.5,107.5C 105.081,108.451 103.415,108.784 101.5,108.5C 101.5,107.167 101.5,105.833 101.5,104.5C 95.6042,104.848 95.2708,106.015 100.5,108C 99.2625,108.232 98.2625,108.732 97.5,109.5C 97.1667,109.5 96.8333,109.5 96.5,109.5C 94.8725,105.533 93.2059,105.533 91.5,109.5C 91.6236,110.107 91.9569,110.44 92.5,110.5C 91.0813,111.451 89.4147,111.784 87.5,111.5C 87.6724,107.029 88.5057,106.696 90,110.5C 90.3095,109.234 90.8095,108.067 91.5,107C 89.5273,106.505 87.5273,106.338 85.5,106.5C 85.2155,108.415 85.5489,110.081 86.5,111.5C 86.1583,112.338 85.4916,112.672 84.5,112.5C 84.5,110.833 84.5,109.167 84.5,107.5C 83.1667,107.5 81.8333,107.5 80.5,107.5C 80.5,109.167 80.5,110.833 80.5,112.5C 74.4134,114.526 68.0801,116.193 61.5,117.5C 53.661,115.983 45.9943,114.316 38.5,112.5C 38.1193,111.069 37.1193,110.236 35.5,110C 37.4257,109.578 38.4257,108.411 38.5,106.5C 41.2062,106.575 43.8728,106.908 46.5,107.5C 45.1516,108.186 43.985,109.186 43,110.5C 40.2891,107.835 39.2891,108.502 40,112.5C 40.3333,111.833 40.6667,111.167 41,110.5C 43.19,113.249 44.8567,112.915 46,109.5C 46.5502,114.07 47.7168,114.403 49.5,110.5C 50.4287,111.689 50.762,113.022 50.5,114.5C 52.7925,114.244 54.9592,114.577 57,115.5C 57.624,113.536 57.124,111.869 55.5,110.5C 53.2619,113.433 52.2619,113.099 52.5,109.5C 55.8333,109.833 59.1667,110.167 62.5,110.5C 63.3019,111.952 63.8019,113.618 64,115.5C 64.9906,114.061 66.324,113.061 68,112.5C 68.3333,113.167 68.6667,113.833 69,114.5C 70.0113,113.663 71.1779,113.33 72.5,113.5C 72.5,112.167 72.5,110.833 72.5,109.5C 71.5,109.5 70.5,109.5 69.5,109.5C 71.2774,108.4 73.2774,107.566 75.5,107C 83.7476,105.021 92.081,103.521 100.5,102.5 Z"/></g>
<g><path style="opacity:1" fill="#9b6f25" d="M 19.5,95.5 C 19.542,96.8123 19.542,98.1457 19.5,99.5C 17.604,100.466 15.604,100.799 13.5,100.5C 14.6085,99.71 15.9419,99.21 17.5,99C 14.4551,98.0855 11.4551,97.4189 8.5,97C 12.0471,99.6216 12.0471,101.955 8.5,104C 10.3869,104.78 12.0536,104.613 13.5,103.5C 14.1667,102.833 14.8333,102.167 15.5,101.5C 15.5,104.167 15.5,106.833 15.5,109.5C 17.1667,109.5 18.8333,109.5 20.5,109.5C 23.9085,110.903 27.5752,111.57 31.5,111.5C 33.6074,112.468 35.9407,112.802 38.5,112.5C 45.9943,114.316 53.661,115.983 61.5,117.5C 68.0801,116.193 74.4134,114.526 80.5,112.5C 81.8333,112.5 83.1667,112.5 84.5,112.5C 85.4916,112.672 86.1583,112.338 86.5,111.5C 86.8333,111.5 87.1667,111.5 87.5,111.5C 89.4147,111.784 91.0813,111.451 92.5,110.5C 93.9587,110.567 95.2921,110.234 96.5,109.5C 96.8333,109.5 97.1667,109.5 97.5,109.5C 99.099,109.768 100.432,109.434 101.5,108.5C 103.415,108.784 105.081,108.451 106.5,107.5C 106.5,106.833 106.833,106.5 107.5,106.5C 107.5,107.833 107.5,109.167 107.5,110.5C 91.7043,112.744 76.0376,115.744 60.5,119.5C 44.8375,116.367 29.1708,113.367 13.5,110.5C 13.5,110.167 13.5,109.833 13.5,109.5C 13.5858,108.504 13.2524,107.671 12.5,107C 9.17272,106.39 5.83939,105.89 2.5,105.5C 1.47498,105.103 1.30831,104.437 2,103.5C 3.98744,102.782 5.82077,101.782 7.5,100.5C 6.25279,98.677 5.58613,96.677 5.5,94.5C 9.18472,95.0037 12.8514,95.6704 16.5,96.5C 17.7261,96.4805 18.7261,96.1471 19.5,95.5 Z"/></g>
<g><path style="opacity:1" fill="#9687ae" d="M 84.5,112.5 C 83.1667,112.5 81.8333,112.5 80.5,112.5C 80.5,110.833 80.5,109.167 80.5,107.5C 81.8333,107.5 83.1667,107.5 84.5,107.5C 84.5,109.167 84.5,110.833 84.5,112.5 Z"/></g>
<g><path style="opacity:1" fill="#8b7da4" d="M 62.5,110.5 C 64.6074,109.532 66.9407,109.198 69.5,109.5C 70.5,109.5 71.5,109.5 72.5,109.5C 72.5,110.833 72.5,112.167 72.5,113.5C 71.1779,113.33 70.0113,113.663 69,114.5C 68.6667,113.833 68.3333,113.167 68,112.5C 66.324,113.061 64.9906,114.061 64,115.5C 63.8019,113.618 63.3019,111.952 62.5,110.5 Z"/></g>
<g><path style="opacity:1" fill="#9480a8" d="M 87.5,111.5 C 87.1667,111.5 86.8333,111.5 86.5,111.5C 85.5489,110.081 85.2155,108.415 85.5,106.5C 87.5273,106.338 89.5273,106.505 91.5,107C 90.8095,108.067 90.3095,109.234 90,110.5C 88.5057,106.696 87.6724,107.029 87.5,111.5 Z"/></g>
<g><path style="opacity:1" fill="#9c98b9" d="M 74.5,108.5 C 78.4193,107.746 79.7527,109.08 78.5,112.5C 77.8333,111.5 77.1667,110.5 76.5,109.5C 75.269,110.651 75.269,111.817 76.5,113C 73.4846,112.831 72.8179,111.331 74.5,108.5 Z"/></g>
<g><path style="opacity:1" fill="#897ea5" d="M 96.5,109.5 C 95.2921,110.234 93.9587,110.567 92.5,110.5C 91.9569,110.44 91.6236,110.107 91.5,109.5C 93.2059,105.533 94.8725,105.533 96.5,109.5 Z"/></g>
<g><path style="opacity:1" fill="#978aab" d="M 46.5,107.5 C 48.6976,107.875 50.6976,108.542 52.5,109.5C 52.2619,113.099 53.2619,113.433 55.5,110.5C 57.124,111.869 57.624,113.536 57,115.5C 54.9592,114.577 52.7925,114.244 50.5,114.5C 50.762,113.022 50.4287,111.689 49.5,110.5C 47.7168,114.403 46.5502,114.07 46,109.5C 44.8567,112.915 43.19,113.249 41,110.5C 40.6667,111.167 40.3333,111.833 40,112.5C 39.2891,108.502 40.2891,107.835 43,110.5C 43.985,109.186 45.1516,108.186 46.5,107.5 Z"/></g>
</svg>
