<svg xmlns="http://www.w3.org/2000/svg" xmlns:xlink="http://www.w3.org/1999/xlink" width="500" zoomAndPan="magnify" viewBox="0 0 375 374.999991" height="500" preserveAspectRatio="xMidYMid meet" version="1.0"><path fill="#4b3a1a" d="M 176.128906 133.414062 C 177.488281 134.230469 178.578125 135.320312 179.394531 136.683594 C 177.238281 136.691406 176.148438 135.601562 176.128906 133.414062 Z M 176.128906 133.414062 " fill-opacity="0.835" fill-rule="evenodd"/><path fill="#bfa188" d="M 168.777344 138.316406 C 162.273438 141.621094 155.46875 142.710938 148.355469 141.582031 C 155.304688 141.296875 162.113281 140.207031 168.777344 138.316406 Z M 168.777344 138.316406 " fill-opacity="0.722" fill-rule="evenodd"/><path fill="#000000" d="M 207.984375 140.765625 C 208.488281 140.855469 208.894531 141.128906 209.207031 141.582031 C 209.617188 163.082031 209.753906 184.582031 209.617188 206.085938 C 209.113281 206.175781 208.703125 206.449219 208.390625 206.902344 C 207.984375 185.128906 207.847656 163.355469 207.984375 141.582031 C 207.984375 141.308594 207.984375 141.035156 207.984375 140.765625 Z M 207.984375 140.765625 " fill-opacity="0.176" fill-rule="evenodd"/><path fill="#ba7f2c" d="M 176.128906 133.414062 C 176.148438 135.601562 177.238281 136.691406 179.394531 136.683594 C 188.492188 140.859375 198.023438 142.21875 207.984375 140.765625 C 207.984375 141.035156 207.984375 141.308594 207.984375 141.582031 C 206.894531 141.582031 205.804688 141.582031 204.714844 141.582031 C 204.714844 142.667969 204.714844 143.757812 204.714844 144.847656 C 202.351562 144.472656 200.308594 145.019531 198.589844 146.480469 C 198.25 145.453125 197.570312 144.910156 196.546875 144.847656 C 194.914062 143.757812 193.28125 143.757812 191.648438 144.847656 C 188.652344 144.847656 185.65625 144.847656 182.660156 144.847656 C 182.660156 145.664062 182.660156 146.480469 182.660156 147.296875 C 185.023438 147.90625 187.472656 148.449219 190.011719 148.929688 C 192.90625 148.675781 195.628906 148.945312 198.179688 149.746094 C 182.660156 149.746094 167.140625 149.746094 151.621094 149.746094 C 151.351562 149.746094 151.078125 149.746094 150.804688 149.746094 C 156.105469 149.070312 161.550781 148.660156 167.140625 148.519531 C 164.53125 148.375 162.082031 147.964844 159.789062 147.296875 C 162.15625 147.671875 164.195312 147.125 165.917969 145.664062 C 166.1875 146.207031 166.460938 146.753906 166.734375 147.296875 C 167.429688 146.542969 168.246094 146.542969 169.183594 147.296875 C 170.011719 146.84375 170.691406 146.296875 171.226562 145.664062 C 171.226562 146.480469 171.226562 147.296875 171.226562 148.113281 C 172.859375 148.113281 174.492188 148.113281 176.128906 148.113281 C 176.671875 148.113281 177.214844 148.113281 177.761719 148.113281 C 178.851562 148.113281 179.9375 148.113281 181.027344 148.113281 C 181.246094 146.808594 180.972656 145.71875 180.210938 144.847656 C 178.578125 143.757812 176.945312 143.757812 175.308594 144.847656 C 171.933594 143.847656 168.667969 143.847656 165.507812 144.847656 C 163.300781 143.855469 161.121094 143.855469 158.972656 144.847656 C 158.292969 145.054688 157.75 145.871094 157.339844 147.296875 C 155.980469 148.386719 154.617188 148.386719 153.257812 147.296875 C 154.265625 146.28125 153.996094 145.464844 152.4375 144.847656 C 151.589844 146.882812 150.910156 146.882812 150.398438 144.847656 C 149.886719 146.882812 149.207031 146.882812 148.355469 144.847656 C 147.796875 145.453125 147.253906 145.996094 146.722656 146.480469 C 146.441406 145.070312 145.625 144.664062 144.269531 145.253906 C 144.816406 145.527344 145.359375 145.800781 145.90625 146.070312 C 144.847656 146.472656 143.757812 146.609375 142.636719 146.480469 C 142.574219 145.3125 142.84375 144.222656 143.453125 143.214844 C 143.070312 142.429688 142.527344 142.429688 141.820312 143.214844 C 143.566406 141.6875 145.742188 141.144531 148.355469 141.582031 C 155.46875 142.710938 162.273438 141.621094 168.777344 138.316406 C 170.800781 136.015625 173.25 134.378906 176.128906 133.414062 Z M 176.128906 133.414062 " fill-opacity="1" fill-rule="evenodd"/><path fill="#6e545a" d="M 165.507812 144.847656 C 167.960938 144.847656 170.410156 144.847656 172.859375 144.847656 C 172.96875 147.644531 172.425781 147.914062 171.226562 145.664062 C 170.691406 146.296875 170.011719 146.84375 169.183594 147.296875 C 168.246094 146.542969 167.429688 146.542969 166.734375 147.296875 C 166.460938 146.753906 166.1875 146.207031 165.917969 145.664062 C 164.195312 147.125 162.15625 147.671875 159.789062 147.296875 C 159.050781 146.71875 158.78125 145.902344 158.972656 144.847656 C 161.121094 143.855469 163.300781 143.855469 165.507812 144.847656 Z M 165.507812 144.847656 " fill-opacity="1" fill-rule="evenodd"/><path fill="#605158" d="M 196.546875 144.847656 C 197.570312 144.910156 198.25 145.453125 198.589844 146.480469 C 200.308594 145.019531 202.351562 144.472656 204.714844 144.847656 C 204.210938 147.375 203.394531 147.648438 202.265625 145.664062 C 201.367188 148.816406 200.6875 148.816406 200.222656 145.664062 C 199.882812 146.6875 199.203125 147.234375 198.179688 147.296875 C 197.59375 146.957031 197.183594 146.410156 196.957031 145.664062 C 196.347656 147.414062 195.667969 147.550781 194.914062 146.070312 C 195.1875 145.230469 195.734375 144.824219 196.546875 144.847656 Z M 196.546875 144.847656 " fill-opacity="1" fill-rule="evenodd"/><path fill="#61535b" d="M 191.648438 144.847656 C 193.054688 145.125 193.464844 145.941406 192.871094 147.296875 C 192.359375 145.261719 191.679688 145.261719 190.828125 147.296875 C 190.265625 146.867188 189.855469 146.324219 189.605469 145.664062 C 187.597656 147.152344 185.285156 147.695312 182.660156 147.296875 C 182.660156 146.480469 182.660156 145.664062 182.660156 144.847656 C 185.65625 144.847656 188.652344 144.847656 191.648438 144.847656 Z M 191.648438 144.847656 " fill-opacity="1" fill-rule="evenodd"/><path fill="#8a6438" d="M 165.507812 144.847656 C 168.667969 143.847656 171.933594 143.847656 175.308594 144.847656 C 174.828125 145.378906 174.285156 145.921875 173.675781 146.480469 C 174.722656 146.085938 175.539062 146.628906 176.128906 148.113281 C 174.492188 148.113281 172.859375 148.113281 171.226562 148.113281 C 171.226562 147.296875 171.226562 146.480469 171.226562 145.664062 C 172.425781 147.914062 172.96875 147.644531 172.859375 144.847656 C 170.410156 144.847656 167.960938 144.847656 165.507812 144.847656 Z M 165.507812 144.847656 " fill-opacity="1" fill-rule="evenodd"/><path fill="#675454" d="M 175.308594 144.847656 C 176.128906 144.847656 176.945312 144.847656 177.761719 144.847656 C 177.761719 145.9375 177.761719 147.023438 177.761719 148.113281 C 177.214844 148.113281 176.671875 148.113281 176.128906 148.113281 C 175.539062 146.628906 174.722656 146.085938 173.675781 146.480469 C 174.285156 145.921875 174.828125 145.378906 175.308594 144.847656 Z M 175.308594 144.847656 " fill-opacity="1" fill-rule="evenodd"/><path fill="#966b40" d="M 175.308594 144.847656 C 176.945312 143.757812 178.578125 143.757812 180.210938 144.847656 C 180.972656 145.71875 181.246094 146.808594 181.027344 148.113281 C 179.9375 148.113281 178.851562 148.113281 177.761719 148.113281 C 177.761719 147.023438 177.761719 145.9375 177.761719 144.847656 C 176.945312 144.847656 176.128906 144.847656 175.308594 144.847656 Z M 175.308594 144.847656 " fill-opacity="1" fill-rule="evenodd"/><path fill="#56486c" d="M 180.210938 144.847656 C 180.390625 145.804688 180.117188 146.625 179.394531 147.296875 C 178.335938 146.03125 178.605469 145.214844 180.210938 144.847656 Z M 180.210938 144.847656 " fill-opacity="1" fill-rule="evenodd"/><path fill="#916d39" d="M 191.648438 144.847656 C 193.28125 143.757812 194.914062 143.757812 196.546875 144.847656 C 195.734375 144.824219 195.1875 145.230469 194.914062 146.070312 C 195.667969 147.550781 196.347656 147.414062 196.957031 145.664062 C 197.183594 146.410156 197.59375 146.957031 198.179688 147.296875 C 195.457031 147.839844 192.734375 148.386719 190.011719 148.929688 C 187.472656 148.449219 185.023438 147.90625 182.660156 147.296875 C 185.285156 147.695312 187.597656 147.152344 189.605469 145.664062 C 189.855469 146.324219 190.265625 146.867188 190.828125 147.296875 C 191.679688 145.261719 192.359375 145.261719 192.871094 147.296875 C 193.464844 145.941406 193.054688 145.125 191.648438 144.847656 Z M 191.648438 144.847656 " fill-opacity="1" fill-rule="evenodd"/><path fill="#edecee" d="M 150.804688 149.746094 C 151.078125 149.746094 151.351562 149.746094 151.621094 149.746094 C 157.0625 156.273438 162.78125 162.53125 168.777344 168.527344 C 169.320312 169.613281 170.136719 170.429688 171.226562 170.976562 C 171.226562 172.335938 171.226562 173.699219 171.226562 175.058594 C 168.503906 175.058594 165.78125 175.058594 163.058594 175.058594 C 157.90625 169.636719 152.734375 164.191406 147.539062 158.726562 C 147.539062 155.734375 147.539062 152.738281 147.539062 149.746094 C 148.628906 149.746094 149.714844 149.746094 150.804688 149.746094 Z M 150.804688 149.746094 " fill-opacity="1" fill-rule="evenodd"/><path fill="#ecebed" d="M 198.179688 149.746094 C 200.085938 149.746094 201.992188 149.746094 203.898438 149.746094 C 203.898438 152.195312 203.898438 154.644531 203.898438 157.09375 C 203.082031 157.367188 202.539062 157.910156 202.265625 158.726562 C 197.09375 164.171875 191.917969 169.613281 186.746094 175.058594 C 184.007812 175.191406 181.285156 175.058594 178.578125 174.648438 C 177.964844 174.101562 177.691406 173.421875 177.761719 172.609375 C 184.542969 165.007812 191.351562 157.386719 198.179688 149.746094 Z M 198.179688 149.746094 " fill-opacity="1" fill-rule="evenodd"/><path fill="#203374" d="M 172.859375 170.160156 C 172.316406 170.429688 171.769531 170.703125 171.226562 170.976562 C 170.136719 170.429688 169.320312 169.613281 168.777344 168.527344 C 169.648438 167.761719 170.738281 167.492188 172.042969 167.710938 C 172.550781 164.605469 171.867188 161.882812 170 159.542969 C 170.105469 157.957031 169.96875 156.460938 169.59375 155.054688 C 170.855469 155.449219 172.214844 155.859375 173.675781 156.277344 C 172.929688 154.371094 171.839844 152.601562 170.410156 150.972656 C 173.675781 150.425781 176.945312 150.425781 180.210938 150.972656 C 181.875 151.980469 182.828125 153.476562 183.070312 155.460938 C 184.3125 153.554688 185.535156 153.691406 186.746094 155.871094 C 186.203125 156.140625 185.65625 156.414062 185.113281 156.6875 C 185.207031 157.722656 185.480469 158.8125 185.929688 159.953125 C 184.914062 160.324219 184.230469 159.917969 183.886719 158.726562 C 183.632812 159.761719 183.226562 160.714844 182.660156 161.585938 C 182.933594 161.859375 183.207031 162.128906 183.480469 162.402344 C 182.257812 163.519531 181.035156 163.65625 179.804688 162.8125 C 179.410156 163.585938 179.273438 164.402344 179.394531 165.261719 C 176.292969 165.636719 174.113281 167.269531 172.859375 170.160156 Z M 172.859375 170.160156 " fill-opacity="1" fill-rule="evenodd"/><path fill="#2a3675" d="M 151.621094 149.746094 C 167.140625 149.746094 182.660156 149.746094 198.179688 149.746094 C 191.351562 157.386719 184.542969 165.007812 177.761719 172.609375 C 177.835938 170.8125 177.289062 170.542969 176.128906 171.792969 C 175.222656 171.746094 174.40625 171.472656 173.675781 170.976562 C 173.675781 170.429688 173.40625 170.160156 172.859375 170.160156 C 174.113281 167.269531 176.292969 165.636719 179.394531 165.261719 C 179.273438 164.402344 179.410156 163.585938 179.804688 162.8125 C 181.035156 163.65625 182.257812 163.519531 183.480469 162.402344 C 183.207031 162.128906 182.933594 161.859375 182.660156 161.585938 C 183.226562 160.714844 183.632812 159.761719 183.886719 158.726562 C 184.230469 159.917969 184.914062 160.324219 185.929688 159.953125 C 185.480469 158.8125 185.207031 157.722656 185.113281 156.6875 C 185.65625 156.414062 186.203125 156.140625 186.746094 155.871094 C 185.535156 153.691406 184.3125 153.554688 183.070312 155.460938 C 182.828125 153.476562 181.875 151.980469 180.210938 150.972656 C 176.945312 150.425781 173.675781 150.425781 170.410156 150.972656 C 171.839844 152.601562 172.929688 154.371094 173.675781 156.277344 C 172.214844 155.859375 170.855469 155.449219 169.59375 155.054688 C 169.96875 156.460938 170.105469 157.957031 170 159.542969 C 171.867188 161.882812 172.550781 164.605469 172.042969 167.710938 C 170.738281 167.492188 169.648438 167.761719 168.777344 168.527344 C 162.78125 162.53125 157.0625 156.273438 151.621094 149.746094 Z M 151.621094 149.746094 " fill-opacity="1" fill-rule="evenodd"/><path fill="#c08628" d="M 146.722656 146.480469 C 148.761719 147.804688 150.941406 148.078125 153.257812 147.296875 C 154.617188 148.386719 155.980469 148.386719 157.339844 147.296875 C 157.75 145.871094 158.292969 145.054688 158.972656 144.847656 C 158.78125 145.902344 159.050781 146.71875 159.789062 147.296875 C 162.082031 147.964844 164.53125 148.375 167.140625 148.519531 C 161.550781 148.660156 156.105469 149.070312 150.804688 149.746094 C 149.714844 149.746094 148.628906 149.746094 147.539062 149.746094 C 147.539062 152.738281 147.539062 155.734375 147.539062 158.726562 C 146.449219 174.515625 146.449219 190.300781 147.539062 206.085938 C 148.082031 207.175781 148.628906 208.261719 149.171875 209.351562 C 147.804688 209.910156 147.257812 211 147.539062 212.617188 C 146.449219 212.617188 145.359375 212.617188 144.269531 212.617188 C 142.308594 212.660156 140.402344 212.390625 138.554688 211.800781 C 138.007812 212.347656 137.464844 212.890625 136.917969 213.433594 C 136.917969 212.617188 136.917969 211.800781 136.917969 210.984375 C 138.636719 211.230469 140.273438 210.957031 141.820312 210.167969 C 141.855469 209.0625 141.855469 207.972656 141.820312 206.902344 C 141.820312 185.671875 141.820312 164.445312 141.820312 143.214844 C 142.527344 142.429688 143.070312 142.429688 143.453125 143.214844 C 142.84375 144.222656 142.574219 145.3125 142.636719 146.480469 C 143.757812 146.609375 144.847656 146.472656 145.90625 146.070312 C 145.359375 145.800781 144.816406 145.527344 144.269531 145.253906 C 145.625 144.664062 146.441406 145.070312 146.722656 146.480469 Z M 146.722656 146.480469 " fill-opacity="1" fill-rule="evenodd"/><path fill="#594854" d="M 157.339844 147.296875 C 156.75 146.957031 156.34375 146.410156 156.113281 145.664062 C 155.226562 147.648438 154.820312 147.375 154.890625 144.847656 C 155.707031 144.847656 156.523438 144.847656 157.339844 144.847656 C 157.339844 145.664062 157.339844 146.480469 157.339844 147.296875 Z M 157.339844 147.296875 " fill-opacity="1" fill-rule="evenodd"/><path fill="#685057" d="M 153.257812 147.296875 C 150.941406 148.078125 148.761719 147.804688 146.722656 146.480469 C 147.253906 145.996094 147.796875 145.453125 148.355469 144.847656 C 149.207031 146.882812 149.886719 146.882812 150.398438 144.847656 C 150.910156 146.882812 151.589844 146.882812 152.4375 144.847656 C 153.996094 145.464844 154.265625 146.28125 153.257812 147.296875 Z M 153.257812 147.296875 " fill-opacity="1" fill-rule="evenodd"/><path fill="#705581" d="M 203.898438 157.09375 C 203.898438 173.425781 203.898438 189.753906 203.898438 206.085938 C 203.089844 206.226562 202.542969 205.953125 202.265625 205.269531 C 203.355469 189.753906 203.355469 174.242188 202.265625 158.726562 C 202.539062 157.910156 203.082031 157.367188 203.898438 157.09375 Z M 203.898438 157.09375 " fill-opacity="1" fill-rule="evenodd"/><path fill="#d04730" d="M 177.761719 172.609375 C 177.691406 173.421875 177.964844 174.101562 178.578125 174.648438 C 181.285156 175.058594 184.007812 175.191406 186.746094 175.058594 C 191.011719 181.667969 195.09375 188.472656 199 195.472656 C 198.625 196.121094 198.082031 196.394531 197.363281 196.289062 C 196.835938 194.949219 196.019531 193.859375 194.914062 193.023438 C 195.273438 193.074219 195.542969 192.9375 195.730469 192.613281 C 192.769531 187.644531 189.910156 182.609375 187.152344 177.507812 C 184.664062 176.601562 182.078125 176.058594 179.394531 175.875 C 179.503906 177.335938 179.230469 178.699219 178.578125 179.957031 C 177.949219 179.335938 177.542969 178.519531 177.351562 177.507812 C 177.023438 178.628906 176.617188 179.71875 176.128906 180.773438 C 176.5 181.425781 177.046875 181.699219 177.761719 181.589844 C 177.761719 181.863281 177.761719 182.136719 177.761719 182.40625 C 176.027344 182.550781 174.394531 182.277344 172.859375 181.589844 C 172.261719 180.605469 171.988281 179.515625 172.042969 178.324219 C 172.585938 178.867188 173.132812 179.414062 173.675781 179.957031 C 175.144531 180.992188 175.417969 180.71875 174.492188 179.140625 C 175.867188 178.035156 176.277344 176.675781 175.71875 175.058594 C 175.066406 178.261719 174.65625 178.261719 174.492188 175.058594 C 174.742188 173.742188 175.285156 172.652344 176.128906 171.792969 C 177.289062 170.542969 177.835938 170.8125 177.761719 172.609375 Z M 177.761719 172.609375 " fill-opacity="1" fill-rule="evenodd"/><path fill="#f6d09f" d="M 173.675781 171.792969 C 173.675781 174.515625 173.675781 177.234375 173.675781 179.957031 C 173.132812 179.414062 172.585938 178.867188 172.042969 178.324219 C 172.421875 176.011719 172.964844 173.835938 173.675781 171.792969 Z M 173.675781 171.792969 " fill-opacity="1" fill-rule="evenodd"/><path fill="#cec6ce" d="M 171.226562 177.507812 C 169.800781 178.574219 168.167969 179.390625 166.324219 179.957031 C 167.785156 180.875 168.058594 181.964844 167.140625 183.222656 C 166.292969 181.1875 165.613281 181.1875 165.101562 183.222656 C 164.496094 182.292969 163.8125 182.292969 163.058594 183.222656 C 162.40625 182.851562 162.132812 182.304688 162.242188 181.589844 C 162.980469 177.589844 165.433594 175.6875 169.59375 175.875 C 170.582031 176.078125 171.128906 176.621094 171.226562 177.507812 Z M 171.226562 177.507812 " fill-opacity="1" fill-rule="evenodd"/><path fill="#e16365" d="M 173.675781 170.976562 C 174.40625 171.472656 175.222656 171.746094 176.128906 171.792969 C 175.285156 172.652344 174.742188 173.742188 174.492188 175.058594 C 174.65625 178.261719 175.066406 178.261719 175.71875 175.058594 C 176.277344 176.675781 175.867188 178.035156 174.492188 179.140625 C 175.417969 180.71875 175.144531 180.992188 173.675781 179.957031 C 173.675781 177.234375 173.675781 174.515625 173.675781 171.792969 C 173.675781 171.519531 173.675781 171.246094 173.675781 170.976562 Z M 173.675781 170.976562 " fill-opacity="1" fill-rule="evenodd"/><path fill="#243a79" d="M 202.265625 158.726562 C 203.355469 174.242188 203.355469 189.753906 202.265625 205.269531 C 199.542969 202.277344 196.820312 199.28125 194.097656 196.289062 C 195.1875 196.289062 196.273438 196.289062 197.363281 196.289062 C 198.082031 196.394531 198.625 196.121094 199 195.472656 C 195.09375 188.472656 191.011719 181.667969 186.746094 175.058594 C 191.917969 169.613281 197.09375 164.171875 202.265625 158.726562 Z M 202.265625 158.726562 " fill-opacity="1" fill-rule="evenodd"/><path fill="#323771" d="M 147.539062 158.726562 C 152.734375 164.191406 157.90625 169.636719 163.058594 175.058594 C 159.457031 181.941406 156.191406 189.015625 153.257812 196.289062 C 154.34375 196.289062 155.433594 196.289062 156.523438 196.289062 C 153.503906 199.574219 150.511719 202.839844 147.539062 206.085938 C 146.449219 190.300781 146.449219 174.515625 147.539062 158.726562 Z M 147.539062 158.726562 " fill-opacity="1" fill-rule="evenodd"/><path fill="#dd8541" d="M 178.578125 179.957031 C 178.71875 180.765625 178.445312 181.3125 177.761719 181.589844 C 177.046875 181.699219 176.5 181.425781 176.128906 180.773438 C 176.617188 179.71875 177.023438 178.628906 177.351562 177.507812 C 177.542969 178.519531 177.949219 179.335938 178.578125 179.957031 Z M 178.578125 179.957031 " fill-opacity="1" fill-rule="evenodd"/><path fill="#d5c8d2" d="M 171.226562 178.324219 C 171.5 178.324219 171.769531 178.324219 172.042969 178.324219 C 171.988281 179.515625 172.261719 180.605469 172.859375 181.589844 C 172.859375 185.128906 172.859375 188.667969 172.859375 192.207031 C 170.03125 190.90625 167.039062 190.363281 163.875 190.570312 C 164.414062 188.199219 165.09375 187.925781 165.917969 189.753906 C 166.386719 187.613281 167.476562 187.070312 169.183594 188.121094 C 170.664062 187.019531 170.394531 186.203125 168.367188 185.671875 C 168.09375 185.945312 167.824219 186.21875 167.550781 186.488281 C 167.15625 185.714844 167.019531 184.898438 167.140625 184.039062 C 168.265625 184.167969 169.351562 184.03125 170.410156 183.632812 C 169.75 183.378906 169.203125 182.972656 168.777344 182.40625 C 170.242188 181.429688 171.058594 180.070312 171.226562 178.324219 Z M 171.226562 178.324219 " fill-opacity="1" fill-rule="evenodd"/><path fill="#e7e0e3" d="M 171.226562 177.507812 C 171.226562 177.78125 171.226562 178.050781 171.226562 178.324219 C 171.058594 180.070312 170.242188 181.429688 168.777344 182.40625 C 169.203125 182.972656 169.75 183.378906 170.410156 183.632812 C 169.351562 184.03125 168.265625 184.167969 167.140625 184.039062 C 167.019531 184.898438 167.15625 185.714844 167.550781 186.488281 C 167.824219 186.21875 168.09375 185.945312 168.367188 185.671875 C 170.394531 186.203125 170.664062 187.019531 169.183594 188.121094 C 167.476562 187.070312 166.386719 187.613281 165.917969 189.753906 C 165.09375 187.925781 164.414062 188.199219 163.875 190.570312 C 161.046875 191.109375 158.460938 192.195312 156.113281 193.839844 C 155.980469 193.429688 155.84375 193.023438 155.707031 192.613281 C 157.59375 188.699219 159.769531 185.023438 162.242188 181.589844 C 162.132812 182.304688 162.40625 182.851562 163.058594 183.222656 C 163.8125 182.292969 164.496094 182.292969 165.101562 183.222656 C 165.613281 181.1875 166.292969 181.1875 167.140625 183.222656 C 168.058594 181.964844 167.785156 180.875 166.324219 179.957031 C 168.167969 179.390625 169.800781 178.574219 171.226562 177.507812 Z M 171.226562 177.507812 " fill-opacity="1" fill-rule="evenodd"/><path fill="#e3dbe1" d="M 194.914062 193.023438 C 189.3125 191.667969 183.597656 191.125 177.761719 191.390625 C 177.761719 188.394531 177.761719 185.402344 177.761719 182.40625 C 177.761719 182.136719 177.761719 181.863281 177.761719 181.589844 C 178.445312 181.3125 178.71875 180.765625 178.578125 179.957031 C 179.230469 178.699219 179.503906 177.335938 179.394531 175.875 C 182.078125 176.058594 184.664062 176.601562 187.152344 177.507812 C 189.910156 182.609375 192.769531 187.644531 195.730469 192.613281 C 195.542969 192.9375 195.273438 193.074219 194.914062 193.023438 Z M 194.914062 193.023438 " fill-opacity="1" fill-rule="evenodd"/><path fill="#895b1f" d="M 172.859375 181.589844 C 174.394531 182.277344 176.027344 182.550781 177.761719 182.40625 C 177.761719 185.402344 177.761719 188.394531 177.761719 191.390625 C 177.761719 193.292969 177.761719 195.199219 177.761719 197.105469 C 176.960938 199.929688 176.6875 202.925781 176.945312 206.085938 C 175.855469 206.085938 174.765625 206.085938 173.675781 206.085938 C 174.054688 202.816406 173.511719 199.824219 172.042969 197.105469 C 172.828125 195.664062 173.101562 194.03125 172.859375 192.207031 C 172.859375 188.667969 172.859375 185.128906 172.859375 181.589844 Z M 172.859375 181.589844 " fill-opacity="1" fill-rule="evenodd"/><path fill="#e43623" d="M 177.761719 191.390625 C 183.597656 191.125 189.3125 191.667969 194.914062 193.023438 C 196.019531 193.859375 196.835938 194.949219 197.363281 196.289062 C 196.273438 196.289062 195.1875 196.289062 194.097656 196.289062 C 190.285156 196.289062 186.472656 196.289062 182.660156 196.289062 C 180.929688 196.144531 179.296875 196.417969 177.761719 197.105469 C 177.761719 195.199219 177.761719 193.292969 177.761719 191.390625 Z M 177.761719 191.390625 " fill-opacity="1" fill-rule="evenodd"/><path fill="#e33728" d="M 172.859375 170.160156 C 173.40625 170.160156 173.675781 170.429688 173.675781 170.976562 C 173.675781 171.246094 173.675781 171.519531 173.675781 171.792969 C 172.964844 173.835938 172.421875 176.011719 172.042969 178.324219 C 171.769531 178.324219 171.5 178.324219 171.226562 178.324219 C 171.226562 178.050781 171.226562 177.78125 171.226562 177.507812 C 171.128906 176.621094 170.582031 176.078125 169.59375 175.875 C 165.433594 175.6875 162.980469 177.589844 162.242188 181.589844 C 159.769531 185.023438 157.59375 188.699219 155.707031 192.613281 C 155.84375 193.023438 155.980469 193.429688 156.113281 193.839844 C 158.460938 192.195312 161.046875 191.109375 163.875 190.570312 C 167.039062 190.363281 170.03125 190.90625 172.859375 192.207031 C 173.101562 194.03125 172.828125 195.664062 172.042969 197.105469 C 170.507812 196.417969 168.875 196.144531 167.140625 196.289062 C 163.601562 196.289062 160.0625 196.289062 156.523438 196.289062 C 155.433594 196.289062 154.34375 196.289062 153.257812 196.289062 C 156.191406 189.015625 159.457031 181.941406 163.058594 175.058594 C 165.78125 175.058594 168.503906 175.058594 171.226562 175.058594 C 171.226562 173.699219 171.226562 172.335938 171.226562 170.976562 C 171.769531 170.703125 172.316406 170.429688 172.859375 170.160156 Z M 172.859375 170.160156 " fill-opacity="1" fill-rule="evenodd"/><path fill="#f0eeee" d="M 182.660156 196.289062 C 186.472656 196.289062 190.285156 196.289062 194.097656 196.289062 C 196.820312 199.28125 199.542969 202.277344 202.265625 205.269531 C 202.542969 205.953125 203.089844 206.226562 203.898438 206.085938 C 203.898438 206.359375 203.898438 206.628906 203.898438 206.902344 C 201.265625 208.84375 198.269531 209.660156 194.914062 209.351562 C 190.828125 204.996094 186.746094 200.644531 182.660156 196.289062 Z M 182.660156 196.289062 " fill-opacity="1" fill-rule="evenodd"/><path fill="#f1edec" d="M 156.523438 196.289062 C 160.0625 196.289062 163.601562 196.289062 167.140625 196.289062 C 163.332031 200.914062 159.519531 205.542969 155.707031 210.167969 C 153.621094 209.445312 151.441406 209.171875 149.171875 209.351562 C 148.628906 208.261719 148.082031 207.175781 147.539062 206.085938 C 150.511719 202.839844 153.503906 199.574219 156.523438 196.289062 Z M 156.523438 196.289062 " fill-opacity="1" fill-rule="evenodd"/><path fill="#0e0805" d="M 219.417969 205.269531 C 220.234375 205.246094 220.777344 205.652344 221.050781 206.496094 C 220.382812 207.964844 219.839844 209.460938 219.417969 210.984375 C 218.691406 210.488281 217.875 210.214844 216.96875 210.167969 C 217.464844 209.441406 217.738281 208.625 217.785156 207.71875 C 218.328125 206.902344 218.875 206.085938 219.417969 205.269531 Z M 219.417969 205.269531 " fill-opacity="0.181" fill-rule="evenodd"/><path fill="#283674" d="M 167.140625 196.289062 C 168.875 196.144531 170.507812 196.417969 172.042969 197.105469 C 173.511719 199.824219 174.054688 202.816406 173.675781 206.085938 C 174.765625 206.085938 175.855469 206.085938 176.945312 206.085938 C 176.6875 202.925781 176.960938 199.929688 177.761719 197.105469 C 179.296875 196.417969 180.929688 196.144531 182.660156 196.289062 C 186.746094 200.644531 190.828125 204.996094 194.914062 209.351562 C 188.453125 211.835938 181.648438 213.195312 174.492188 213.433594 C 168.148438 212.765625 161.886719 211.675781 155.707031 210.167969 C 159.519531 205.542969 163.332031 200.914062 167.140625 196.289062 Z M 167.140625 196.289062 " fill-opacity="1" fill-rule="evenodd"/><path fill="#b37f22" d="M 207.984375 141.582031 C 207.847656 163.355469 207.984375 185.128906 208.390625 206.902344 C 208.703125 206.449219 209.113281 206.175781 209.617188 206.085938 C 212.726562 206.15625 215.71875 205.613281 218.601562 204.453125 C 219.097656 204.554688 219.371094 204.824219 219.417969 205.269531 C 218.875 206.085938 218.328125 206.902344 217.785156 207.71875 C 214.996094 208.136719 212.277344 208.820312 209.617188 209.761719 C 212.007812 210.320312 213.09375 211.816406 212.882812 214.25 C 213.15625 214.796875 213.429688 215.339844 213.699219 215.882812 C 213.15625 215.882812 212.882812 216.15625 212.882812 216.699219 C 211.574219 216.058594 211.027344 214.96875 211.25 213.433594 C 209.945312 213.652344 208.855469 213.382812 207.984375 212.617188 C 206.722656 212.078125 205.363281 211.53125 203.898438 210.984375 C 204.328125 210.417969 204.871094 210.011719 205.53125 209.761719 C 204.453125 209.09375 203.90625 208.140625 203.898438 206.902344 C 203.898438 206.628906 203.898438 206.359375 203.898438 206.085938 C 203.898438 189.753906 203.898438 173.425781 203.898438 157.09375 C 203.898438 154.644531 203.898438 152.195312 203.898438 149.746094 C 201.992188 149.746094 200.085938 149.746094 198.179688 149.746094 C 195.628906 148.945312 192.90625 148.675781 190.011719 148.929688 C 192.734375 148.386719 195.457031 147.839844 198.179688 147.296875 C 199.203125 147.234375 199.882812 146.6875 200.222656 145.664062 C 200.6875 148.816406 201.367188 148.816406 202.265625 145.664062 C 203.394531 147.648438 204.210938 147.375 204.714844 144.847656 C 204.714844 143.757812 204.714844 142.667969 204.714844 141.582031 C 205.804688 141.582031 206.894531 141.582031 207.984375 141.582031 Z M 207.984375 141.582031 " fill-opacity="1" fill-rule="evenodd"/><path fill="#434476" d="M 217.785156 207.71875 C 217.738281 208.625 217.464844 209.441406 216.96875 210.167969 C 216.027344 211.613281 216.574219 212.5625 218.601562 213.027344 C 216.824219 214.007812 214.917969 214.417969 212.882812 214.25 C 213.09375 211.816406 212.007812 210.320312 209.617188 209.761719 C 212.277344 208.820312 214.996094 208.136719 217.785156 207.71875 Z M 217.785156 207.71875 " fill-opacity="1" fill-rule="evenodd"/><path fill="#a16f1d" d="M 216.96875 210.167969 C 217.875 210.214844 218.691406 210.488281 219.417969 210.984375 C 221.203125 211.152344 222.835938 211.695312 224.320312 212.617188 C 224.082031 213.554688 223.402344 214.101562 222.277344 214.25 C 219.417969 214.851562 216.558594 215.394531 213.699219 215.882812 C 213.429688 215.339844 213.15625 214.796875 212.882812 214.25 C 214.917969 214.417969 216.824219 214.007812 218.601562 213.027344 C 216.574219 212.5625 216.027344 211.613281 216.96875 210.167969 Z M 216.96875 210.167969 " fill-opacity="1" fill-rule="evenodd"/><path fill="#070400" d="M 224.320312 212.617188 C 225.507812 213.449219 225.777344 214.402344 225.136719 215.476562 C 221.914062 216.417969 218.644531 217.097656 215.335938 217.515625 C 215.472656 218.597656 215.203125 219.550781 214.519531 220.375 C 201.75 223.089844 188.953125 225.675781 176.128906 228.132812 C 163.886719 225.78125 151.632812 223.46875 139.371094 221.191406 C 138.046875 221 137.230469 220.320312 136.917969 219.152344 C 149.71875 221.492188 162.515625 223.941406 175.308594 226.5 C 188 223.433594 200.796875 220.984375 213.699219 219.152344 C 213.699219 218.0625 213.699219 216.972656 213.699219 215.882812 C 216.558594 215.394531 219.417969 214.851562 222.277344 214.25 C 223.402344 214.101562 224.082031 213.554688 224.320312 212.617188 Z M 224.320312 212.617188 " fill-opacity="0.215" fill-rule="evenodd"/><path fill="#3c346b" d="M 136.917969 210.984375 C 136.917969 211.800781 136.917969 212.617188 136.917969 213.433594 C 135.738281 214.34375 134.378906 214.480469 132.835938 213.84375 C 135.734375 212.171875 135.734375 210.269531 132.835938 208.128906 C 135.25 208.46875 137.699219 209.015625 140.1875 209.761719 C 138.914062 209.933594 137.824219 210.339844 136.917969 210.984375 Z M 136.917969 210.984375 " fill-opacity="1" fill-rule="evenodd"/><path fill="#bf8631" d="M 203.898438 206.902344 C 203.90625 208.140625 204.453125 209.09375 205.53125 209.761719 C 204.871094 210.011719 204.328125 210.417969 203.898438 210.984375 C 205.363281 211.53125 206.722656 212.078125 207.984375 212.617188 C 201.105469 213.453125 194.300781 214.675781 187.5625 216.292969 C 185.746094 216.753906 184.113281 217.4375 182.660156 218.332031 C 180.570312 218.085938 178.664062 218.359375 176.945312 219.152344 C 174.222656 218.878906 171.5 218.605469 168.777344 218.332031 C 167.304688 217.550781 165.671875 217.007812 163.875 216.699219 C 161.730469 216.21875 159.550781 215.945312 157.339844 215.882812 C 156.082031 215.230469 154.71875 214.957031 153.257812 215.066406 C 150.207031 214.160156 147.210938 213.34375 144.269531 212.617188 C 145.359375 212.617188 146.449219 212.617188 147.539062 212.617188 C 147.257812 211 147.804688 209.910156 149.171875 209.351562 C 151.441406 209.171875 153.621094 209.445312 155.707031 210.167969 C 161.886719 211.675781 168.148438 212.765625 174.492188 213.433594 C 181.648438 213.195312 188.453125 211.835938 194.914062 209.351562 C 198.269531 209.660156 201.265625 208.84375 203.898438 206.902344 Z M 203.898438 206.902344 " fill-opacity="1" fill-rule="evenodd"/><path fill="#988eac" d="M 208.800781 217.515625 C 207.925781 218.28125 206.839844 218.554688 205.53125 218.332031 C 206.15625 217.707031 206.972656 217.296875 207.984375 217.109375 C 203.710938 215.488281 203.984375 214.535156 208.800781 214.25 C 208.800781 215.339844 208.800781 216.429688 208.800781 217.515625 Z M 208.800781 217.515625 " fill-opacity="1" fill-rule="evenodd"/><path fill="#070400" d="M 127.933594 215.066406 C 130.664062 215.386719 133.386719 215.792969 136.101562 216.292969 C 136.71875 216.839844 136.988281 217.519531 136.917969 218.332031 C 134.523438 217.707031 132.070312 217.160156 129.570312 216.699219 C 128.578125 216.5 128.03125 215.953125 127.933594 215.066406 Z M 127.933594 215.066406 " fill-opacity="0.132" fill-rule="evenodd"/><path fill="#393971" d="M 138.554688 211.800781 C 140.402344 212.390625 142.308594 212.660156 144.269531 212.617188 C 147.210938 213.34375 150.207031 214.160156 153.257812 215.066406 C 151.199219 216.585938 151.199219 218.082031 153.257812 219.558594 C 152.769531 219.9375 152.226562 220.074219 151.621094 219.96875 C 148.417969 220.023438 145.421875 219.480469 142.636719 218.332031 C 141.277344 218.332031 139.914062 218.332031 138.554688 218.332031 C 138.554688 216.15625 138.554688 213.980469 138.554688 211.800781 Z M 138.554688 211.800781 " fill-opacity="1" fill-rule="evenodd"/><path fill="#726592" d="M 153.257812 215.066406 C 154.71875 214.957031 156.082031 215.230469 157.339844 215.882812 C 157.28125 217.445312 156.460938 218.398438 154.890625 218.742188 C 156.210938 218.933594 157.03125 219.613281 157.339844 220.785156 C 155.25 221.03125 153.34375 220.757812 151.621094 219.96875 C 152.226562 220.074219 152.769531 219.9375 153.257812 219.558594 C 151.199219 218.082031 151.199219 216.585938 153.257812 215.066406 Z M 153.257812 215.066406 " fill-opacity="1" fill-rule="evenodd"/><path fill="#9b8fb1" d="M 146.722656 215.066406 C 148.183594 214.835938 149.542969 215.105469 150.804688 215.882812 C 150.074219 216.023438 149.257812 216.292969 148.355469 216.699219 C 151.550781 218.390625 151.277344 219.070312 147.539062 218.742188 C 146.820312 217.636719 146.546875 216.410156 146.722656 215.066406 Z M 146.722656 215.066406 " fill-opacity="1" fill-rule="evenodd"/><path fill="#9586ad" d="M 142.636719 218.332031 C 141.984375 217.074219 141.710938 215.714844 141.820312 214.25 C 143.183594 214.25 144.542969 214.25 145.90625 214.25 C 145.90625 215.613281 145.90625 216.972656 145.90625 218.332031 C 144.816406 218.332031 143.726562 218.332031 142.636719 218.332031 Z M 142.636719 218.332031 " fill-opacity="1" fill-rule="evenodd"/><path fill="#3f4178" d="M 207.984375 212.617188 C 208.855469 213.382812 209.945312 213.652344 211.25 213.433594 C 211.027344 214.96875 211.574219 216.058594 212.882812 216.699219 C 211.726562 217.476562 210.363281 217.75 208.800781 217.515625 C 208.800781 216.429688 208.800781 215.339844 208.800781 214.25 C 203.984375 214.535156 203.710938 215.488281 207.984375 217.109375 C 206.972656 217.296875 206.15625 217.707031 205.53125 218.332031 C 205.261719 218.332031 204.988281 218.332031 204.714844 218.332031 C 203.386719 215.09375 202.023438 215.09375 200.632812 218.332031 C 200.734375 218.828125 201.003906 219.101562 201.449219 219.152344 C 200.289062 219.925781 198.929688 220.199219 197.363281 219.96875 C 197.503906 216.316406 198.1875 216.042969 199.40625 219.152344 C 199.660156 218.117188 200.066406 217.164062 200.632812 216.292969 C 199.019531 215.886719 197.386719 215.753906 195.730469 215.882812 C 195.5 217.449219 195.769531 218.808594 196.546875 219.96875 C 196.269531 220.652344 195.722656 220.925781 194.914062 220.785156 C 194.914062 219.421875 194.914062 218.0625 194.914062 216.699219 C 193.824219 216.699219 192.734375 216.699219 191.648438 216.699219 C 191.648438 218.0625 191.648438 219.421875 191.648438 220.785156 C 186.675781 222.4375 181.5 223.800781 176.128906 224.867188 C 169.722656 223.628906 163.460938 222.265625 157.339844 220.785156 C 157.03125 219.613281 156.210938 218.933594 154.890625 218.742188 C 156.460938 218.398438 157.28125 217.445312 157.339844 215.882812 C 159.550781 215.945312 161.730469 216.21875 163.875 216.699219 C 162.773438 217.261719 161.820312 218.078125 161.015625 219.152344 C 158.800781 216.972656 157.984375 217.519531 158.566406 220.785156 C 158.835938 220.238281 159.109375 219.695312 159.382812 219.152344 C 161.171875 221.394531 162.53125 221.121094 163.464844 218.332031 C 163.914062 222.066406 164.867188 222.335938 166.324219 219.152344 C 167.082031 220.121094 167.355469 221.210938 167.140625 222.417969 C 169.015625 222.207031 170.785156 222.480469 172.453125 223.234375 C 172.960938 221.628906 172.554688 220.269531 171.226562 219.152344 C 169.398438 221.546875 168.582031 221.273438 168.777344 218.332031 C 171.5 218.605469 174.222656 218.878906 176.945312 219.152344 C 177.597656 220.335938 178.007812 221.695312 178.167969 223.234375 C 178.976562 222.058594 180.066406 221.242188 181.4375 220.785156 C 181.707031 221.328125 181.980469 221.871094 182.253906 222.417969 C 183.078125 221.734375 184.03125 221.460938 185.113281 221.601562 C 185.113281 220.511719 185.113281 219.421875 185.113281 218.332031 C 184.296875 218.332031 183.480469 218.332031 182.660156 218.332031 C 184.113281 217.4375 185.746094 216.753906 187.5625 216.292969 C 194.300781 214.675781 201.105469 213.453125 207.984375 212.617188 Z M 207.984375 212.617188 " fill-opacity="1" fill-rule="evenodd"/><path fill="#9b6f25" d="M 141.820312 206.902344 C 141.855469 207.972656 141.855469 209.0625 141.820312 210.167969 C 140.273438 210.957031 138.636719 211.230469 136.917969 210.984375 C 137.824219 210.339844 138.914062 209.933594 140.1875 209.761719 C 137.699219 209.015625 135.25 208.46875 132.835938 208.128906 C 135.734375 210.269531 135.734375 212.171875 132.835938 213.84375 C 134.378906 214.480469 135.738281 214.34375 136.917969 213.433594 C 137.464844 212.890625 138.007812 212.347656 138.554688 211.800781 C 138.554688 213.980469 138.554688 216.15625 138.554688 218.332031 C 139.914062 218.332031 141.277344 218.332031 142.636719 218.332031 C 145.421875 219.480469 148.417969 220.023438 151.621094 219.96875 C 153.34375 220.757812 155.25 221.03125 157.339844 220.785156 C 163.460938 222.265625 169.722656 223.628906 176.128906 224.867188 C 181.5 223.800781 186.675781 222.4375 191.648438 220.785156 C 192.734375 220.785156 193.824219 220.785156 194.914062 220.785156 C 195.722656 220.925781 196.269531 220.652344 196.546875 219.96875 C 196.820312 219.96875 197.09375 219.96875 197.363281 219.96875 C 198.929688 220.199219 200.289062 219.925781 201.449219 219.152344 C 202.640625 219.207031 203.730469 218.933594 204.714844 218.332031 C 204.988281 218.332031 205.261719 218.332031 205.53125 218.332031 C 206.839844 218.554688 207.925781 218.28125 208.800781 217.515625 C 210.363281 217.75 211.726562 217.476562 212.882812 216.699219 C 212.882812 216.15625 213.15625 215.882812 213.699219 215.882812 C 213.699219 216.972656 213.699219 218.0625 213.699219 219.152344 C 200.796875 220.984375 188 223.433594 175.308594 226.5 C 162.515625 223.941406 149.71875 221.492188 136.917969 219.152344 C 136.917969 218.878906 136.917969 218.605469 136.917969 218.332031 C 136.988281 217.519531 136.71875 216.839844 136.101562 216.292969 C 133.386719 215.792969 130.664062 215.386719 127.933594 215.066406 C 127.097656 214.742188 126.960938 214.199219 127.527344 213.433594 C 129.148438 212.847656 130.648438 212.03125 132.019531 210.984375 C 131 209.496094 130.457031 207.863281 130.386719 206.085938 C 133.394531 206.496094 136.390625 207.042969 139.371094 207.71875 C 140.371094 207.703125 141.1875 207.429688 141.820312 206.902344 Z M 141.820312 206.902344 " fill-opacity="1" fill-rule="evenodd"/><path fill="#9687ae" d="M 194.914062 220.785156 C 193.824219 220.785156 192.734375 220.785156 191.648438 220.785156 C 191.648438 219.421875 191.648438 218.0625 191.648438 216.699219 C 192.734375 216.699219 193.824219 216.699219 194.914062 216.699219 C 194.914062 218.0625 194.914062 219.421875 194.914062 220.785156 Z M 194.914062 220.785156 " fill-opacity="1" fill-rule="evenodd"/><path fill="#8b7da4" d="M 176.945312 219.152344 C 178.664062 218.359375 180.570312 218.085938 182.660156 218.332031 C 183.480469 218.332031 184.296875 218.332031 185.113281 218.332031 C 185.113281 219.421875 185.113281 220.511719 185.113281 221.601562 C 184.03125 221.460938 183.078125 221.734375 182.253906 222.417969 C 181.980469 221.871094 181.707031 221.328125 181.4375 220.785156 C 180.066406 221.242188 178.976562 222.058594 178.167969 223.234375 C 178.007812 221.695312 177.597656 220.335938 176.945312 219.152344 Z M 176.945312 219.152344 " fill-opacity="1" fill-rule="evenodd"/><path fill="#9480a8" d="M 197.363281 219.96875 C 197.09375 219.96875 196.820312 219.96875 196.546875 219.96875 C 195.769531 218.808594 195.5 217.449219 195.730469 215.882812 C 197.386719 215.753906 199.019531 215.886719 200.632812 216.292969 C 200.066406 217.164062 199.660156 218.117188 199.40625 219.152344 C 198.1875 216.042969 197.503906 216.316406 197.363281 219.96875 Z M 197.363281 219.96875 " fill-opacity="1" fill-rule="evenodd"/><path fill="#9c98b9" d="M 186.746094 217.515625 C 189.945312 216.902344 191.035156 217.992188 190.011719 220.785156 C 189.46875 219.96875 188.925781 219.152344 188.378906 218.332031 C 187.375 219.273438 187.375 220.226562 188.378906 221.191406 C 185.917969 221.054688 185.371094 219.828125 186.746094 217.515625 Z M 186.746094 217.515625 " fill-opacity="1" fill-rule="evenodd"/><path fill="#897ea5" d="M 204.714844 218.332031 C 203.730469 218.933594 202.640625 219.207031 201.449219 219.152344 C 201.003906 219.101562 200.734375 218.828125 200.632812 218.332031 C 202.023438 215.09375 203.386719 215.09375 204.714844 218.332031 Z M 204.714844 218.332031 " fill-opacity="1" fill-rule="evenodd"/><path fill="#978aab" d="M 163.875 216.699219 C 165.671875 217.007812 167.304688 217.550781 168.777344 218.332031 C 168.582031 221.273438 169.398438 221.546875 171.226562 219.152344 C 172.554688 220.269531 172.960938 221.628906 172.453125 223.234375 C 170.785156 222.480469 169.015625 222.207031 167.140625 222.417969 C 167.355469 221.210938 167.082031 220.121094 166.324219 219.152344 C 164.867188 222.335938 163.914062 222.066406 163.464844 218.332031 C 162.53125 221.121094 161.171875 221.394531 159.382812 219.152344 C 159.109375 219.695312 158.835938 220.238281 158.566406 220.785156 C 157.984375 217.519531 158.800781 216.972656 161.015625 219.152344 C 161.820312 218.078125 162.773438 217.261719 163.875 216.699219 Z M 163.875 216.699219 " fill-opacity="1" fill-rule="evenodd"/></svg>